<svg aria-hidden="true" style="position: absolute; width: 0; height: 0; overflow: hidden;" version="1.1" xmlns="http://www.w3.org/2000/svg" xmlns:xlink="http://www.w3.org/1999/xlink">
<defs>
<symbol id="icon-new_tab" viewBox="0 0 32 32">
<title>new_tab</title>
<path d="M6 0v26h26v-26h-26zM29.5 23.5h-21v-21h21v21z"></path>
<path d="M2.5 29.5v-23.5h-2.5v26h26v-2.5h-2.5z"></path>
<path d="M14.551 19.552l7.366-7.366v5.3h2.5v-9.567h-9.567v2.5h5.3l-7.366 7.366z"></path>
</symbol>
<symbol id="icon-pdf" viewBox="0 0 73 32">
<title>pdf</title>
<path d="M7.273 0h58.182c4.017 0 7.273 3.256 7.273 7.273v0 17.455c0 4.017-3.256 7.273-7.273 7.273v0h-58.182c-4.017 0-7.273-3.256-7.273-7.273v0-17.455c0-4.017 3.256-7.273 7.273-7.273v0zM19.418 19.276c0.101 0.005 0.219 0.008 0.338 0.008 1.762 0 3.38-0.613 4.654-1.638l-0.014 0.011c1.174-0.998 1.914-2.477 1.914-4.128 0-0.077-0.002-0.153-0.005-0.229l0 0.011c0.006-0.091 0.010-0.197 0.010-0.304 0-1.474-0.672-2.791-1.725-3.662l-0.008-0.006c-1.264-0.863-2.824-1.377-4.505-1.377-0.194 0-0.387 0.007-0.578 0.020l0.026-0.001h-6.481v17.126h3.75v-5.83h2.618zM18.055 10.673c0.184-0.020 0.397-0.031 0.612-0.031 1.052 0 2.041 0.268 2.903 0.741l-0.031-0.016c0.542 0.447 0.885 1.119 0.885 1.871 0 0.054-0.002 0.107-0.005 0.16l0-0.007c0.006 0.072 0.010 0.155 0.010 0.24 0 0.847-0.355 1.611-0.923 2.152l-0.001 0.001c-0.879 0.512-1.935 0.815-3.062 0.815-0.236 0-0.469-0.013-0.698-0.039l0.028 0.003h-1.002v-5.888h1.284zM34.419 25.105c0.168 0.007 0.365 0.012 0.562 0.012 1.787 0 3.494-0.347 5.056-0.976l-0.091 0.032c1.388-0.647 2.507-1.674 3.248-2.949l0.019-0.035c0.769-1.287 1.223-2.838 1.223-4.495 0-0.048-0-0.096-0.001-0.143l0 0.007c0.003-0.093 0.005-0.203 0.005-0.313 0-1.644-0.439-3.186-1.205-4.515l0.023 0.044c-0.76-1.257-1.856-2.242-3.166-2.846l-0.045-0.018c-1.497-0.599-3.232-0.946-5.048-0.946-0.22 0-0.438 0.005-0.655 0.015l0.031-0.001h-5.353v17.127h5.398zM34.612 10.673q5.898 0 5.898 5.852 0 5.887-5.898 5.887h-1.843v-11.738h1.841zM59.385 7.98h-11.978v17.126h3.75v-7.651h7.455v-2.826h-7.478v-3.807h8.25v-2.842z"></path>
</symbol>
<symbol id="icon-facebook" viewBox="0 0 1024 1024">
<title>facebook</title>
<path d="M1024,512C1024,229.2,794.8,0,512,0S0,229.2,0,512c0,255.6,187.2,467.4,432,505.8V660H302V512h130V399.2
	C432,270.9,508.4,200,625.4,200c56,0,114.6,10,114.6,10v126h-64.6c-63.6,0-83.4,39.5-83.4,80v96h142l-22.7,148H592v357.8
	C836.8,979.4,1024,767.6,1024,512z"></path>
</symbol>

<symbol id="icon-twitter" viewBox="0 0 250 203.2">
<title>twitter</title>
	<path d="M78.6,203.2c94.3,0,145.9-78.2,145.9-145.9c0-2.2,0-4.4-0.1-6.6c10-7.2,18.7-16.3,25.6-26.6
		c-9.2,4.1-19.1,6.8-29.5,8.1c10.6-6.3,18.7-16.4,22.6-28.4c-9.9,5.9-20.9,10.1-32.6,12.4C201.2,6.2,187.8,0,173.1,0
		c-28.3,0-51.3,23-51.3,51.3c0,4,0.5,7.9,1.3,11.7C80.5,60.8,42.7,40.4,17.4,9.4C13,17,10.5,25.8,10.5,35.2
		c0,17.8,9.1,33.5,22.8,42.7C24.9,77.6,17,75.3,10,71.5c0,0.2,0,0.4,0,0.7c0,24.8,17.7,45.6,41.1,50.3c-4.3,1.2-8.8,1.8-13.5,1.8
		c-3.3,0-6.5-0.3-9.6-0.9c6.5,20.4,25.5,35.2,47.9,35.6c-17.6,13.8-39.7,22-63.7,22c-4.1,0-8.2-0.2-12.2-0.7
		C22.7,194.7,49.7,203.2,78.6,203.2"></path>
</symbol>
<symbol id="icon-instagram" viewBox="0 0 503.8 503.8">
<title>instagram</title>
	<path d="M251.9,45.4c67.3,0,75.2,0.3,101.8,1.5c24.6,1.1,37.9,5.2,46.8,8.7c11.8,4.6,20.2,10,29,18.8
		c8.8,8.8,14.3,17.2,18.8,29c3.4,8.9,7.6,22.2,8.7,46.8c1.2,26.6,1.5,34.5,1.5,101.8s-0.3,75.2-1.5,101.8
		c-1.1,24.6-5.2,37.9-8.7,46.8c-4.6,11.8-10,20.2-18.8,29c-8.8,8.8-17.2,14.3-29,18.8c-8.9,3.4-22.2,7.6-46.8,8.7
		c-26.6,1.2-34.5,1.5-101.8,1.5s-75.2-0.3-101.8-1.5c-24.6-1.1-37.9-5.2-46.8-8.7c-11.8-4.6-20.2-10-29-18.8
		c-8.8-8.8-14.3-17.2-18.8-29c-3.4-8.9-7.6-22.2-8.7-46.8c-1.2-26.6-1.5-34.5-1.5-101.8s0.3-75.2,1.5-101.8
		c1.1-24.6,5.2-37.9,8.7-46.8c4.6-11.8,10-20.2,18.8-29c8.8-8.8,17.2-14.3,29-18.8c8.9-3.4,22.2-7.6,46.8-8.7
		C176.7,45.6,184.7,45.4,251.9,45.4 M251.9,0c-68.4,0-77,0.3-103.9,1.5C121.2,2.7,102.9,7,86.9,13.2c-16.6,6.4-30.6,15.1-44.6,29.1
		c-14,14-22.6,28.1-29.1,44.6c-6.2,16-10.5,34.3-11.7,61.2C0.3,174.9,0,183.5,0,251.9c0,68.4,0.3,77,1.5,103.9
		c1.2,26.8,5.5,45.1,11.7,61.2c6.4,16.6,15.1,30.6,29.1,44.6c14,14,28.1,22.6,44.6,29.1c16,6.2,34.3,10.5,61.2,11.7
		c26.9,1.2,35.4,1.5,103.9,1.5s77-0.3,103.9-1.5c26.8-1.2,45.1-5.5,61.2-11.7c16.6-6.4,30.6-15.1,44.6-29.1
		c14-14,22.6-28.1,29.1-44.6c6.2-16,10.5-34.3,11.7-61.2c1.2-26.9,1.5-35.4,1.5-103.9s-0.3-77-1.5-103.9
		c-1.2-26.8-5.5-45.1-11.7-61.2c-6.4-16.6-15.1-30.6-29.1-44.6c-14-14-28.1-22.6-44.6-29.1c-16-6.2-34.3-10.5-61.2-11.7
		C328.9,0.3,320.3,0,251.9,0L251.9,0z"></path>
	<path d="M251.9,122.6c-71.4,0-129.4,57.9-129.4,129.4s57.9,129.4,129.4,129.4s129.4-57.9,129.4-129.4
		S323.4,122.6,251.9,122.6z M251.9,335.9c-46.4,0-84-37.6-84-84c0-46.4,37.6-84,84-84s84,37.6,84,84
		C335.9,298.3,298.3,335.9,251.9,335.9z"></path>
	<circle cx="386.4" cy="117.4" r="30.2"></circle>
</symbol>
<symbol id="icon-youtube" viewBox="0 0 176 124">
<title>youtube</title>
<path d="M172.3,19.4c-2-7.6-8-13.6-15.6-15.7C143,0,88,0,88,0S33,0,19.2,3.7c-7.6,2-13.5,8-15.6,15.7C0,33.2,0,62,0,62
	s0,28.8,3.7,42.6c2,7.6,8,13.6,15.6,15.7C33,124,88,124,88,124s55,0,68.8-3.7c7.6-2,13.5-8,15.6-15.7C176,90.8,176,62,176,62
	S176,33.2,172.3,19.4z M70,88.2V35.8L116,62L70,88.2z"></path>
</symbol>
<symbol id="icon-mic" viewBox="0 0 76 76">
<title>icon-mic</title>
<path d="M47.8396 16.2359L41.9328 10.3188C41.9316 10.3216 41.931 10.324 41.9298 10.3262L41.9119 10.3082C40.4548 13.4254 39.9433 16.8806 40.3916 20.2343L55.7659 35.6073C58.4772 35.9704 61.2522 35.6943 63.8637 34.8095C63.8729 34.8067 63.8817 34.8031 63.8909 34.8003C64.3965 34.6281 64.8964 34.435 65.388 34.2163C65.482 34.1757 65.5816 34.1467 65.6745 34.1044L65.6675 34.0974C65.6755 34.094 65.6839 34.091 65.6913 34.0876L47.8396 16.2359Z" fill="white"></path>
<path d="M70.763 5.23702C63.7802 -1.74533 52.4509 -1.74533 45.4678 5.23702C44.9036 5.80183 44.3824 6.39959 43.9092 7.01709L68.9824 32.0903C69.5999 31.6172 70.1982 31.0959 70.763 30.5311C77.7454 23.5492 77.7454 12.2194 70.763 5.23702Z" fill="white"></path>
<path d="M9.29991 34.7232L9.28313 34.7394L20.1347 45.5911L1.56037 64.1652C-0.520125 66.2451 -0.520125 69.6179 1.56037 71.6978L4.30172 74.4393C6.38222 76.5197 9.75442 76.5197 11.8343 74.4398L30.4086 55.8655L41.197 66.6538L41.2434 66.7002L41.2603 66.717L61.0146 46.9628L29.0373 14.9857L9.29991 34.7232ZM51.0333 46.963L41.2643 56.7319L41.2603 56.7359L19.2644 34.7394L29.0373 24.9664L51.0025 46.9322L51.0333 46.963Z" fill="white"></path>
</symbol>
<symbol id="polygon" viewBox="0 0 57 48">
<title>polygon</title>
<path d="M55.3468 0.5L28.5 47L1.65322 0.499995L55.3468 0.5Z"></path>
</symbol>
</defs>
</svg>