<svg width="32" height="35" viewBox="0 0 32 35" fill="none" xmlns="http://www.w3.org/2000/svg" preserveAspectRatio="none" style="width: 2rem;">
<path d="M10.2298 14.79C10.8898 16.36 11.9898 18.06 13.3598 19.73C14.5498 21.11 15.9698 22.43 17.5798 23.48C17.8598 23.67 18.1498 23.81 18.3898 23.86C18.4798 23.86 18.5798 23.81 18.6698 23.76L21.5198 21.34C22.0398 20.91 22.6598 20.68 23.2798 20.72C23.8998 20.72 24.5098 20.96 24.9898 21.43C25.8898 22.28 26.8398 23.14 27.7898 23.94C28.7398 24.79 29.7398 25.55 30.6798 26.31C31.0098 26.55 31.2498 26.83 31.4398 27.21C31.5798 27.54 31.6798 27.92 31.6798 28.3C31.6798 28.68 31.6298 29.06 31.4898 29.44C31.2998 29.77 31.0598 30.06 30.7798 30.34L26.5998 33.85C26.0298 34.32 25.3198 34.66 24.6098 34.8C23.8998 34.9 23.1398 34.85 22.4298 34.56C19.6298 33.52 16.9698 32.09 14.5098 30.34C12.0898 28.63 9.85983 26.59 7.86983 24.22C5.87983 21.89 4.21983 19.33 2.92983 16.67C1.59983 13.98 0.649829 11.09 0.079829 8.18999C-0.060171 7.42999 -0.010171 6.66999 0.219829 5.95999C0.459829 5.29999 0.879829 4.67999 1.49983 4.15999L5.67983 0.599995C5.95983 0.359995 6.33983 0.169995 6.67983 0.0799945H6.72983C7.10983 -0.0100055 7.48983 -0.0100055 7.81983 0.0299945C8.24983 0.129995 8.57983 0.269995 8.85983 0.499995C9.18983 0.689995 9.42983 1.01999 9.61983 1.34999C10.1898 2.43999 10.8098 3.52999 11.4698 4.61999C12.1298 5.70999 12.7998 6.75999 13.5098 7.79999C13.8898 8.37 13.9798 8.99 13.9398 9.59999C13.8498 10.22 13.5098 10.79 13.0398 11.21L10.1498 13.63C10.0498 13.72 10.0098 13.82 10.0098 13.91C10.0098 14.15 10.0998 14.48 10.2498 14.76L10.2298 14.79ZM11.8898 20.96C10.3698 19.2 9.22983 17.31 8.42983 15.6C8.18983 15.03 7.99983 14.41 8.04983 13.8C8.09983 13.18 8.32983 12.66 8.89983 12.19L11.7498 9.76999C11.8898 9.67999 11.9398 9.52999 11.9898 9.33999C11.9898 9.19999 11.9898 9.05999 11.8998 8.90999C11.1398 7.81999 10.4798 6.72999 9.80983 5.63999C9.13983 4.54999 8.52983 3.40999 7.90983 2.26999C7.85983 2.21999 7.81983 2.12999 7.71983 2.07999C7.66983 2.02999 7.57983 1.97999 7.47983 1.97999C7.38983 1.92999 7.28983 1.92999 7.19983 1.97999C7.09983 1.97999 7.00983 2.02999 6.95983 2.11999L2.73983 5.62999C2.40983 5.91 2.16983 6.24999 2.07983 6.62999C1.93983 7.00999 1.93983 7.39 1.98983 7.81999C2.55983 10.57 3.45983 13.28 4.68983 15.84C5.91983 18.35 7.48983 20.78 9.33983 23.01C11.2398 25.24 13.3698 27.14 15.6498 28.75C17.9798 30.41 20.4898 31.74 23.0998 32.78C23.5298 32.92 23.9098 32.97 24.2898 32.88C24.6698 32.83 25.0498 32.64 25.3798 32.36L29.5098 28.85C29.5998 28.8 29.6498 28.71 29.6998 28.66C29.7498 28.57 29.7498 28.47 29.7498 28.38C29.7498 28.29 29.7498 28.19 29.6998 28.1C29.6498 28.01 29.6098 27.96 29.5098 27.91C28.5098 27.1 27.5198 26.3 26.5198 25.44C25.5698 24.63 24.5698 23.73 23.6298 22.88C23.5398 22.74 23.3898 22.69 23.2498 22.69C23.0598 22.69 22.9198 22.74 22.8198 22.83L19.9298 25.25C19.4098 25.68 18.8398 25.87 18.2198 25.82C17.6498 25.77 17.0298 25.49 16.5098 25.16C14.7498 23.97 13.1898 22.55 11.9098 20.98L11.8898 20.96Z" fill="black"></path>
<defs>
<clipPath>
<rect width="31.68" height="34.86" fill="white" style="width: 1.98rem;"></rect>
</clipPath>
</defs>
</svg>