<svg xmlns="http://www.w3.org/2000/svg" xmlns:xlink="http://www.w3.org/1999/xlink" viewBox="0 0 300 300" width="300" height="300" preserveAspectRatio="xMidYMid meet" style="width: 100%; height: 100%; transform: translate3d(0px, 0px, 0px); content-visibility: visible;"><defs><clipPath id="__lottie_element_166"><rect width="300" height="300" x="0" y="0"></rect></clipPath><g id="__lottie_element_170"><g transform="matrix(1,0,0,1,149.19700622558594,248.69400024414062)" opacity="1" fill="rgb(217,43,68)" font-size="280" font-family="Montserrat" font-style="normal" font-weight="normal" aria-label="N" style="display: block;"><g stroke-linecap="butt" stroke-linejoin="round" stroke-miterlimit="4" transform="matrix(1,0,0,1,-113.4000015258789,0)" opacity="1" style="display: inherit;"><g><g transform="matrix(1,0,0,1,0,0)" opacity="1" style="display: block;"><path d=" M165.52,-197.39 C165.52,-197.39 165.52,-63.73 165.52,-63.73 C165.52,-63.73 56.68,-197.39 56.68,-197.39 C56.68,-197.39 26.51,-197.39 26.51,-197.39 C26.51,-197.39 26.51,0 26.51,0 C26.51,0 62.88,0 62.88,0 C62.88,0 62.88,-133.66 62.88,-133.66 C62.88,-133.66 171.73,0 171.73,0 C171.73,0 201.9,0 201.9,0 C201.9,0 201.9,-197.39 201.9,-197.39 C201.9,-197.39 165.52,-197.39 165.52,-197.39z"></path><g opacity="1" transform="matrix(2.799999952316284,0,0,2.799999952316284,0,0)"></g></g></g></g></g></g><clipPath id="__lottie_element_174"><path d="M0,0 L300,0 L300,300 L0,300z"></path></clipPath><mask id="__lottie_element_170_1" mask-type="alpha"><use xlink:href="#__lottie_element_170"></use></mask></defs><g clip-path="url(#__lottie_element_166)"><g mask="url(#__lottie_element_170_1)" style="display: block;"><g clip-path="url(#__lottie_element_174)" transform="matrix(1,0,0,1,11,0)" opacity="1"><g transform="matrix(1,0,0,1,240,-176)" opacity="1" style="display: block;"><g opacity="1" transform="matrix(4.699999809265137,0,0,1,-136,390)"><path fill="rgb(217,43,68)" fill-opacity="1" d=" M18,-232 C18,-232 18,232 18,232 C18,232 -18,232 -18,232 C-18,232 -18,-232 -18,-232 C-18,-232 18,-232 18,-232z"></path></g></g><g transform="matrix(1,0,0,1,310,-176)" opacity="1" style="display: block;"><g opacity="1" transform="matrix(5.889999866485596,0,0,1,-136,390)"><path fill="rgb(217,43,68)" fill-opacity="1" d=" M18,-232 C18,-232 18,232 18,232 C18,232 -18,232 -18,232 C-18,232 -18,-232 -18,-232 C-18,-232 18,-232 18,-232z"></path></g></g></g></g><g transform="matrix(1,0,0,1,149.19700622558594,248.69400024414062)" opacity="1" style="display: block;"><g opacity="1" transform="matrix(1,0,0,1,0,0)"><path stroke-linecap="butt" stroke-linejoin="miter" fill-opacity="0" stroke-miterlimit="4" stroke="rgb(216,43,68)" stroke-opacity="1" stroke-width="2" d=" M87.00700378417969,-197.38800048828125 C80.16200256347656,-197.38800048828125 52.124000549316406,-197.38800048828125 52.124000549316406,-197.38800048828125 C52.124000549316406,-197.38800048828125 52.124000549316406,-197.38800048828125 52.124000549316406,-197.38800048828125 C52.124000549316406,-197.38800048828125 52.124000549316406,-63.72800064086914 52.124000549316406,-63.72800064086914 C52.124000549316406,-63.72800064086914 -56.72100067138672,-197.38800048828125 -56.72100067138672,-197.38800048828125 C-56.72100067138672,-197.38800048828125 -86.89299774169922,-197.38800048828125 -86.89299774169922,-197.38800048828125 C-86.89299774169922,-197.38800048828125 -86.89299774169922,0 -86.89299774169922,0 C-86.89299774169922,0 -50.518001556396484,0 -50.518001556396484,0 C-50.518001556396484,0 -50.518001556396484,-133.66000366210938 -50.518001556396484,-133.66000366210938 C-50.518001556396484,-133.66000366210938 58.327999114990234,0 58.327999114990234,0 C58.327999114990234,0 88.5,0 88.5,0 C88.5,0 88.5,-197.38800048828125 88.5,-197.38800048828125 C88.5,-197.38800048828125 87.95800018310547,-197.38800048828125 87.00700378417969,-197.38800048828125"></path></g></g></g></svg>