<svg xmlns="http://www.w3.org/2000/svg" xmlns:xlink="http://www.w3.org/1999/xlink" viewBox="0 0 1920 1160" width="1920" height="1160" preserveAspectRatio="xMidYMid meet" style="width: 100%; height: 100%; transform: translate3d(0px, 0px, 0px); content-visibility: visible;"><defs><clipPath id="__lottie_element_10"><rect width="1920" height="1160" x="0" y="0"></rect></clipPath><clipPath id="__lottie_element_12"><path d="M0,0 L1920,0 L1920,1160 L0,1160z"></path></clipPath><g id="__lottie_element_15"><g transform="matrix(1,0,0,1,1,12.5)" opacity="1" style="display: block;"><g opacity="1" transform="matrix(1,0,0,1,959,567.5)"><path fill="rgb(229,229,229)" fill-opacity="1" d=" M-959,567.5 C-959,567.5 959,567.5 959,567.5 C959,567.5 959,-567.5 959,-567.5 C959,-567.5 -959,-567.5 -959,-567.5 C-959,-567.5 -959,567.5 -959,567.5z M861.3729858398438,-470.35699462890625 C820.885986328125,-466.5799865722656 780.7940063476562,-462.802001953125 742.0570068359375,-459.4119873046875 C680.9450073242188,-453.98699951171875 610.1489868164062,-448.1759948730469 556.1099853515625,-439.84600830078125 C405.69500732421875,-416.4049987792969 297.7149963378906,-372.625 207.73899841308594,-319.7380065917969 C172.48500061035156,-299.010009765625 142.8489990234375,-274.79400634765625 113.41000366210938,-250.38600158691406 C69.54000091552734,-214.16000366210938 40.9630012512207,-170.281005859375 8.52299976348877,-129.30999755859375 C-2.615000009536743,-115.36199951171875 -13.364999771118164,-101.51000213623047 -24.114999771118164,-87.56300354003906 C-88.71399688720703,-3.2929999828338623 -152.7310028076172,79.42500305175781 -218.0070037841797,162.7270050048828 C-261.5889892578125,218.42100524902344 -318.72900390625,267.239990234375 -397.27398681640625,305.7900085449219 C-458.385986328125,335.8169860839844 -525.6959838867188,357.9010009765625 -617.4110107421875,372.3330078125 C-647.531005859375,377.0790100097656 -680.1690063476562,379.5010070800781 -714.0659790039062,382.8909912109375 C-762.4910278320312,387.63800048828125 -811.6900024414062,392.2869873046875 -861.8569946289062,397.0329895019531 C-861.8569946289062,397.0329895019531 -861.8569946289062,321.093994140625 -861.8569946289062,321.093994140625 C-834.9340209960938,314.02301025390625 -808.68798828125,304.7239990234375 -783.31298828125,293.10198974609375 C-738.5689697265625,273.0509948730469 -706.2210083007812,249.9980010986328 -679.3939819335938,222.1020050048828 C-666.3200073242188,208.54100036621094 -656.5380249023438,193.23800659179688 -645.2069702148438,178.41799926757812 C-611.2130126953125,133.76499938964844 -576.6380004882812,90.75800323486328 -543.5159912109375,45.814998626708984 C-499.5459899902344,-13.270000457763672 -451.8970031738281,-71.87100219726562 -408.2179870605469,-130.76300048828125 C-386.3299865722656,-160.4010009765625 -358.82501220703125,-188.29800415039062 -329.5769958496094,-213.77200317382812 C-269.239990234375,-266.17401123046875 -201.92999267578125,-312.8609924316406 -119.41400146484375,-354.802001953125 C-18.788999557495117,-405.8479919433594 108.1780014038086,-451.1789855957031 254.80499267578125,-476.36199951171875 C285.8949890136719,-481.69000244140625 317.9540100097656,-486.3389892578125 351.4670104980469,-490.0199890136719 C413.35101318359375,-496.79998779296875 476.6889953613281,-502.3210144042969 546.031005859375,-508.61700439453125 C613.6320190429688,-514.6229858398438 683.3690185546875,-521.7899780273438 746.1229858398438,-527.7960205078125 C784.0880126953125,-531.3790283203125 822.7260131835938,-534.6729736328125 861.3729858398438,-538.1599731445312 C861.3729858398438,-538.1599731445312 861.3729858398438,-470.35699462890625 861.3729858398438,-470.35699462890625z"></path></g></g></g><filter id="__lottie_element_21" filterUnits="objectBoundingBox" x="0%" y="0%" width="100%" height="100%"><feComponentTransfer in="SourceGraphic"><feFuncA type="table" tableValues="1.0 0.0"></feFuncA></feComponentTransfer></filter><mask id="__lottie_element_15_2" mask-type="alpha"><g filter="url(#__lottie_element_21)"><rect width="1920" height="1160" x="0" y="0" fill="#ffffff" opacity="0"></rect><use xlink:href="#__lottie_element_15"></use></g></mask><clipPath id="__lottie_element_23"><path d="M0,0 L1920,0 L1920,1160 L0,1160z"></path></clipPath><g id="__lottie_element_26"><g style="display: block;" transform="matrix(1,0,0,1,1,12.5)" opacity="1"><g opacity="1" transform="matrix(1,0,0,1,959,567.5)"><path fill="rgb(229,229,229)" fill-opacity="1" d=" M-959,567.5 C-959,567.5 959,567.5 959,567.5 C959,567.5 959,-567.5 959,-567.5 C959,-567.5 -959,-567.5 -959,-567.5 C-959,-567.5 -959,567.5 -959,567.5z M861.8579711914062,-322.45098876953125 C825.3469848632812,-313.7330017089844 793.385986328125,-302.2070007324219 766.2639770507812,-289.71099853515625 C701.7680053710938,-259.9750061035156 665.9299926757812,-217.93800354003906 632.614013671875,-173.96200561523438 C610.3380126953125,-144.51699829101562 587.2899780273438,-115.75 564.9149780273438,-86.49800109863281 C531.2130126953125,-42.32899856567383 497.125,1.2589999437332153 463.61199951171875,45.040000915527344 C441.1470031738281,74.48500061035156 418.4849853515625,103.4469985961914 395.0419921875,132.11700439453125 C371.7070007324219,160.69200134277344 344.781005859375,187.81300354003906 316.2130126953125,214.25599670410156 C288.1210021972656,240.31100463867188 254.2310028076172,264.1390075683594 219.1649932861328,287.77398681640625 C148.95199584960938,335.3320007324219 67.69999694824219,375.4320068359375 -26.05299949645996,410.5929870605469 C-73.12100219726562,428.1239929199219 -125.22599792480469,443.0400085449219 -180.72000122070312,456.79901123046875 C-239.41000366210938,471.2309875488281 -298.9729919433594,481.885009765625 -359.0190124511719,488.56201171875 C-449.2820129394531,498.5429992675781 -559.010986328125,508.6130065917969 -649.6619873046875,517.2379760742188 C-719.2969970703125,523.9240112304688 -790.47998046875,531.1849975585938 -861.5670166015625,538.1589965820312 C-861.5670166015625,538.1589965820312 -861.5670166015625,469.7770080566406 -861.5670166015625,469.7770080566406 C-799.4869995117188,463.8630065917969 -737.697998046875,457.9570007324219 -676.780029296875,451.7550048828125 C-661.0900268554688,450.30999755859375 -645.0130004882812,449.34100341796875 -629.614013671875,447.5010070800781 C-494.3160095214844,432.0010070800781 -387.97698974609375,402.26300048828125 -301.2969970703125,361.87200927734375 C-257.3269958496094,341.239990234375 -218.2010040283203,320.5119934082031 -183.3350067138672,297.0719909667969 C-149.92300415039062,274.50299072265625 -118.93000030517578,248.64199829101562 -90.74800109863281,219.87399291992188 C-63.72700119018555,192.26800537109375 -43.19499969482422,162.04800415039062 -20.242000579833984,132.21400451660156 C2.4210000038146973,102.86599731445312 24.986000061035156,73.22599792480469 48.71699905395508,43.779998779296875 C72.1520004272461,14.819000244140625 93.26100158691406,-15.305000305175781 116.22000122070312,-44.847999572753906 C138.9810028076172,-74.38899993896484 162.70199584960938,-103.73899841308594 185.17599487304688,-133.28199768066406 C196.41299438476562,-148.10000610351562 207.55099487304688,-163.11399841308594 218.49200439453125,-177.83700561523438 C229.72799682617188,-192.8509979248047 241.4409942626953,-207.86399841308594 254.9040069580078,-221.3280029296875 C281.9280090332031,-248.44900512695312 317.8559875488281,-272.5669860839844 356.98699951171875,-294.0710144042969 C397.2770080566406,-316.25201416015625 442.60101318359375,-334.6549987792969 494.8009948730469,-349.4750061035156 C548.3560180664062,-364.77899169921875 609.85302734375,-374.27099609375 679.4920043945312,-380.5669860839844 C740.7020263671875,-386.0889892578125 800.9429931640625,-391.99700927734375 861.8579711914062,-397.9049987792969 C861.8579711914062,-397.9049987792969 861.8579711914062,-322.45098876953125 861.8579711914062,-322.45098876953125z"></path></g></g></g><filter id="__lottie_element_32" filterUnits="objectBoundingBox" x="0%" y="0%" width="100%" height="100%"><feComponentTransfer in="SourceGraphic"><feFuncA type="table" tableValues="1.0 0.0"></feFuncA></feComponentTransfer></filter><mask id="__lottie_element_26_2" mask-type="alpha"><g filter="url(#__lottie_element_32)"><rect width="1920" height="1160" x="0" y="0" fill="#ffffff" opacity="0"></rect><use xlink:href="#__lottie_element_26"></use></g></mask></defs><g clip-path="url(#__lottie_element_10)"><g clip-path="url(#__lottie_element_23)" style="display: block;" transform="matrix(1.0458300113677979,0,0,1.082759976387024,-43.996826171875,-48.00079345703125)" opacity="1"><g mask="url(#__lottie_element_26_2)" style="display: block;"><g transform="matrix(1,0,0,1,960,576)" opacity="1"><g opacity="1" transform="matrix(1,0,0,1,0,0)"><path stroke-linecap="butt" stroke-linejoin="miter" fill-opacity="0" stroke-miterlimit="4" stroke="rgb(255,255,255)" stroke-opacity="1" stroke-width="395" d=" M1168,-336 C1168,-336 596.072998046875,-525.8460083007812 268.0010070800781,60 C-12,559.9990234375 -808,472 -1032,572"></path></g></g></g></g><g clip-path="url(#__lottie_element_12)" transform="matrix(1.0458300113677979,0,0,1.082759976387024,-43.996826171875,-48.00079345703125)" opacity="1" style="display: block;"><g mask="url(#__lottie_element_15_2)" style="display: block;"><g transform="matrix(1,0,0,1,928,432)" opacity="1"><g opacity="1" transform="matrix(1,0,0,1,0,0)"><path stroke-linecap="butt" stroke-linejoin="miter" fill-opacity="0" stroke-miterlimit="4" stroke="rgb(255,255,255)" stroke-opacity="1" stroke-width="395" d=" M987.9979858398438,-328 C987.9979858398438,-328 600,-448 -35.99800109863281,-96 C-295.3110046386719,47.52000045776367 -160,504 -1328,612"></path></g></g></g></g></g></svg>