<svg width="50" height="50" viewBox="0 0 50 50" fill="none" xmlns="http://www.w3.org/2000/svg" class="recruit-btn01" style="width: 3.125rem;">
<circle cx="25" cy="25" r="25" fill="white"></circle>
<path d="M14 23.5C13.1716 23.5 12.5 24.1716 12.5 25C12.5 25.8284 13.1716 26.5 14 26.5V23.5ZM37.0607 26.0607C37.6464 25.4749 37.6464 24.5251 37.0607 23.9393L27.5147 14.3934C26.9289 13.8076 25.9792 13.8076 25.3934 14.3934C24.8076 14.9792 24.8076 15.9289 25.3934 16.5147L33.8787 25L25.3934 33.4853C24.8076 34.0711 24.8076 35.0208 25.3934 35.6066C25.9792 36.1924 26.9289 36.1924 27.5147 35.6066L37.0607 26.0607ZM14 26.5H36V23.5H14V26.5Z" fill="black"></path>
</svg>