<svg xmlns="http://www.w3.org/2000/svg" xmlns:xlink="http://www.w3.org/1999/xlink" viewBox="0 0 300 300" width="300" height="300" preserveAspectRatio="xMidYMid meet" style="width: 100%; height: 100%; transform: translate3d(0px, 0px, 0px); content-visibility: visible;"><defs><clipPath id="__lottie_element_33"><rect width="300" height="300" x="0" y="0"></rect></clipPath><g id="__lottie_element_37"><g style="display: block;" transform="matrix(1,0,0,1,84,56)" opacity="1"><g opacity="1" transform="matrix(1,0,0,1,70.53800201416016,90.5719985961914)"><path fill="rgb(217,43,68)" fill-opacity="1" d=" M-69.93000030517578,69.05500030517578 C-69.93000030517578,69.05500030517578 -58.67100143432617,43.78499984741211 -58.67100143432617,43.78499984741211 C-44.65999984741211,55.04399871826172 -22.39299964904785,63.04899978637695 -0.8759999871253967,63.04899978637695 C26.395999908447266,63.04899978637695 37.904998779296875,53.29199981689453 37.904998779296875,40.28200149536133 C37.904998779296875,2.502000093460083 -66.177001953125,27.27199935913086 -66.177001953125,-37.779998779296875 C-66.177001953125,-66.052001953125 -43.659000396728516,-90.0719985961914 4.379000186920166,-90.0719985961914 C25.395999908447266,-90.0719985961914 47.4119987487793,-84.56700134277344 62.67399978637695,-74.55899810791016 C62.67399978637695,-74.55899810791016 52.41699981689453,-49.290000915527344 52.41699981689453,-49.290000915527344 C36.65399932861328,-58.547000885009766 19.391000747680664,-63.04999923706055 4.129000186920166,-63.04999923706055 C-22.892000198364258,-63.04999923706055 -33.902000427246094,-52.54199981689453 -33.902000427246094,-39.28099822998047 C-33.902000427246094,-2.000999927520752 69.93000030517578,-26.270999908447266 69.93000030517578,38.03099822998047 C69.93000030517578,66.052001953125 47.1619987487793,90.0719985961914 -0.8759999871253967,90.0719985961914 C-28.148000717163086,90.0719985961914 -55.417999267578125,81.56500244140625 -69.93000030517578,69.05500030517578z"></path></g></g></g><clipPath id="__lottie_element_41"><path d="M0,0 L300,0 L300,300 L0,300z"></path></clipPath><mask id="__lottie_element_37_1" mask-type="alpha"><use xlink:href="#__lottie_element_37"></use></mask></defs><g clip-path="url(#__lottie_element_33)"><g mask="url(#__lottie_element_37_1)" style="display: block;"><g clip-path="url(#__lottie_element_41)" transform="matrix(1,0,0,1,0,0)" opacity="1"><g transform="matrix(1,0,0,1,150,150)" opacity="1" style="display: block;"><g opacity="1" transform="matrix(1,0,0,1,0,4.450921058654785)"><path fill="rgb(217,43,68)" fill-opacity="1" d=" M169,-163.5 C169,-163.5 169,163.5 169,163.5 C169,163.5 -169,163.5 -169,163.5 C-169,163.5 -169,-163.5 -169,-163.5 C-169,-163.5 169,-163.5 169,-163.5z"></path></g></g></g></g><g transform="matrix(1,0,0,1,84,56)" opacity="1" style="display: block;"><g opacity="1" transform="matrix(1,0,0,1,70.53800201416016,90.5719985961914)"><path stroke-linecap="butt" stroke-linejoin="miter" fill-opacity="0" stroke-miterlimit="4" stroke="rgb(217,43,68)" stroke-opacity="1" stroke-width="1" d=" M57.119998931884766,-60.87699890136719 C54.70500183105469,-54.926998138427734 52.41699981689453,-49.290000915527344 52.41699981689453,-49.290000915527344 C36.65399932861328,-58.547000885009766 19.391000747680664,-63.04999923706055 4.129000186920166,-63.04999923706055 C-22.892000198364258,-63.04999923706055 -33.902000427246094,-52.54199981689453 -33.902000427246094,-39.28099822998047 C-33.902000427246094,-2.000999927520752 69.93000030517578,-26.270999908447266 69.93000030517578,38.03099822998047 C69.93000030517578,66.052001953125 47.1619987487793,90.0719985961914 -0.8759999871253967,90.0719985961914 C-28.148000717163086,90.0719985961914 -55.417999267578125,81.56500244140625 -69.93000030517578,69.05500030517578 C-69.93000030517578,69.05500030517578 -69.93000030517578,69.05500030517578 -69.93000030517578,69.05500030517578 C-69.93000030517578,69.05500030517578 -58.67100143432617,43.78499984741211 -58.67100143432617,43.78499984741211 C-44.65999984741211,55.04399871826172 -22.39299964904785,63.04899978637695 -0.8759999871253967,63.04899978637695 C26.395999908447266,63.04899978637695 37.904998779296875,53.29199981689453 37.904998779296875,40.28200149536133 C37.904998779296875,2.502000093460083 -66.177001953125,27.27199935913086 -66.177001953125,-37.779998779296875 C-66.177001953125,-66.052001953125 -43.659000396728516,-90.0719985961914 4.379000186920166,-90.0719985961914 C25.395999908447266,-90.0719985961914 47.4119987487793,-84.56700134277344 62.67399978637695,-74.55899810791016 C62.67399978637695,-74.55899810791016 59.81800079345703,-67.52300262451172 57.119998931884766,-60.87699890136719"></path></g></g></g></svg>