<svg xmlns="http://www.w3.org/2000/svg" xmlns:xlink="http://www.w3.org/1999/xlink" viewBox="0 0 340 100" width="340" height="100" preserveAspectRatio="xMidYMid meet" style="width: 100%; height: 100%; transform: translate3d(0px, 0px, 0px); content-visibility: visible;"><defs><clipPath id="__lottie_element_81"><rect width="340" height="100" x="0" y="0"></rect></clipPath></defs><g clip-path="url(#__lottie_element_81)"><g transform="matrix(1,0,0,1,316.4800109863281,64.0989990234375)" opacity="1" style="display: block;"><g opacity="1" transform="matrix(1,0,0,1,0,0)"><path fill="rgb(0,0,0)" fill-opacity="1" d=" M-0.9470000267028809,0 C-0.9470000267028809,0 1.1069999933242798,0 1.1069999933242798,0 C1.1069999933242798,0 5.896999835968018,-26.344999313354492 5.896999835968018,-26.344999313354492 C5.896999835968018,-26.344999313354492 16.048999786376953,-26.344999313354492 16.048999786376953,-26.344999313354492 C16.048999786376953,-26.344999313354492 16.385000228881836,-28.197999954223633 16.385000228881836,-28.197999954223633 C16.385000228881836,-28.197999954223633 -5.9720001220703125,-28.197999954223633 -5.9720001220703125,-28.197999954223633 C-5.9720001220703125,-28.197999954223633 -6.309000015258789,-26.344999313354492 -6.309000015258789,-26.344999313354492 C-6.309000015258789,-26.344999313354492 3.8429999351501465,-26.344999313354492 3.8429999351501465,-26.344999313354492 C3.8429999351501465,-26.344999313354492 -0.9470000267028809,0 -0.9470000267028809,0z"></path></g></g><g transform="matrix(1,0,0,1,286.4800109863281,64.0989990234375)" opacity="1" style="display: block;"><g opacity="1" transform="matrix(1,0,0,1,0,0)"><path fill="rgb(0,0,0)" fill-opacity="1" d=" M14.668999671936035,-28.197999954223633 C14.668999671936035,-28.197999954223633 10.215999603271484,-3.7060000896453857 10.215999603271484,-3.7060000896453857 C10.215999603271484,-3.7060000896453857 -4.50600004196167,-28.197999954223633 -4.50600004196167,-28.197999954223633 C-4.50600004196167,-28.197999954223633 -6.23799991607666,-28.197999954223633 -6.23799991607666,-28.197999954223633 C-6.23799991607666,-28.197999954223633 -11.364999771118164,0 -11.364999771118164,0 C-11.364999771118164,0 -9.310999870300293,0 -9.310999870300293,0 C-9.310999870300293,0 -4.857999801635742,-24.492000579833984 -4.857999801635742,-24.492000579833984 C-4.857999801635742,-24.492000579833984 9.904000282287598,0 9.904000282287598,0 C9.904000282287598,0 11.595999717712402,0 11.595999717712402,0 C11.595999717712402,0 16.722999572753906,-28.197999954223633 16.722999572753906,-28.197999954223633 C16.722999572753906,-28.197999954223633 14.668999671936035,-28.197999954223633 14.668999671936035,-28.197999954223633z"></path></g></g><g transform="matrix(1,0,0,1,254.97999572753906,64.0989990234375)" opacity="1" style="display: block;"><g opacity="1" transform="matrix(1,0,0,1,0,0)"><path fill="rgb(0,0,0)" fill-opacity="1" d=" M-6.073999881744385,-1.8530000448226929 C-6.073999881744385,-1.8530000448226929 -3.9719998836517334,-13.413999557495117 -3.9719998836517334,-13.413999557495117 C-3.9719998836517334,-13.413999557495117 11.053999900817871,-13.413999557495117 11.053999900817871,-13.413999557495117 C11.053999900817871,-13.413999557495117 11.383999824523926,-15.22700023651123 11.383999824523926,-15.22700023651123 C11.383999824523926,-15.22700023651123 -3.6419999599456787,-15.22700023651123 -3.6419999599456787,-15.22700023651123 C-3.6419999599456787,-15.22700023651123 -1.621000051498413,-26.344999313354492 -1.621000051498413,-26.344999313354492 C-1.621000051498413,-26.344999313354492 15.177000045776367,-26.344999313354492 15.177000045776367,-26.344999313354492 C15.177000045776367,-26.344999313354492 15.513999938964844,-28.197999954223633 15.513999938964844,-28.197999954223633 C15.513999938964844,-28.197999954223633 -3.3380000591278076,-28.197999954223633 -3.3380000591278076,-28.197999954223633 C-3.3380000591278076,-28.197999954223633 -8.46500015258789,0 -8.46500015258789,0 C-8.46500015258789,0 10.991999626159668,0 10.991999626159668,0 C10.991999626159668,0 11.329000473022461,-1.8530000448226929 11.329000473022461,-1.8530000448226929 C11.329000473022461,-1.8530000448226929 -6.073999881744385,-1.8530000448226929 -6.073999881744385,-1.8530000448226929z"></path></g></g><g transform="matrix(1,0,0,1,221.47999572753906,64.0989990234375)" opacity="1" style="display: block;"><g opacity="1" transform="matrix(1,0,0,1,0,0)"><path fill="rgb(0,0,0)" fill-opacity="1" d=" M14.47599983215332,0 C14.47599983215332,0 19.562999725341797,-28.197999954223633 19.562999725341797,-28.197999954223633 C19.562999725341797,-28.197999954223633 17.871000289916992,-28.197999954223633 17.871000289916992,-28.197999954223633 C17.871000289916992,-28.197999954223633 1.2999999523162842,-6.40500020980835 1.2999999523162842,-6.40500020980835 C1.2999999523162842,-6.40500020980835 -7.3460001945495605,-28.197999954223633 -7.3460001945495605,-28.197999954223633 C-7.3460001945495605,-28.197999954223633 -9.07800006866455,-28.197999954223633 -9.07800006866455,-28.197999954223633 C-9.07800006866455,-28.197999954223633 -14.204999923706055,0 -14.204999923706055,0 C-14.204999923706055,0 -12.190999984741211,0 -12.190999984741211,0 C-12.190999984741211,0 -7.818999767303467,-24.048999786376953 -7.818999767303467,-24.048999786376953 C-7.818999767303467,-24.048999786376953 0.2930000126361847,-3.746000051498413 0.2930000126361847,-3.746000051498413 C0.2930000126361847,-3.746000051498413 1.2999999523162842,-3.746000051498413 1.2999999523162842,-3.746000051498413 C1.2999999523162842,-3.746000051498413 16.80900001525879,-24.1299991607666 16.80900001525879,-24.1299991607666 C16.80900001525879,-24.1299991607666 12.461999893188477,0 12.461999893188477,0 C12.461999893188477,0 14.47599983215332,0 14.47599983215332,0z"></path></g></g><g transform="matrix(1,0,0,1,187.97999572753906,64.0989990234375)" opacity="1" style="display: block;"><g opacity="1" transform="matrix(1,0,0,1,0,0)"><path fill="rgb(0,0,0)" fill-opacity="1" d=" M-0.9470000267028809,0 C-0.9470000267028809,0 1.1069999933242798,0 1.1069999933242798,0 C1.1069999933242798,0 5.896999835968018,-26.344999313354492 5.896999835968018,-26.344999313354492 C5.896999835968018,-26.344999313354492 16.048999786376953,-26.344999313354492 16.048999786376953,-26.344999313354492 C16.048999786376953,-26.344999313354492 16.385000228881836,-28.197999954223633 16.385000228881836,-28.197999954223633 C16.385000228881836,-28.197999954223633 -5.9720001220703125,-28.197999954223633 -5.9720001220703125,-28.197999954223633 C-5.9720001220703125,-28.197999954223633 -6.309000015258789,-26.344999313354492 -6.309000015258789,-26.344999313354492 C-6.309000015258789,-26.344999313354492 3.8429999351501465,-26.344999313354492 3.8429999351501465,-26.344999313354492 C3.8429999351501465,-26.344999313354492 -0.9470000267028809,0 -0.9470000267028809,0z"></path></g></g><g transform="matrix(1,0,0,1,166.47999572753906,64.0989990234375)" opacity="1" style="display: block;"><g opacity="1" transform="matrix(1,0,0,1,0,0)"><path fill="rgb(0,0,0)" fill-opacity="1" d=" M-0.9850000143051147,0 C-0.9850000143051147,0 1.069000005722046,0 1.069000005722046,0 C1.069000005722046,0 6.196000099182129,-28.197999954223633 6.196000099182129,-28.197999954223633 C6.196000099182129,-28.197999954223633 4.142000198364258,-28.197999954223633 4.142000198364258,-28.197999954223633 C4.142000198364258,-28.197999954223633 -0.9850000143051147,0 -0.9850000143051147,0z"></path></g></g><g transform="matrix(1,0,0,1,141.47999572753906,64.0989990234375)" opacity="1" style="display: block;"><g opacity="1" transform="matrix(1,0,0,1,0,0)"><path fill="rgb(0,0,0)" fill-opacity="1" d=" M0.0560000017285347,0.20100000500679016 C7.065000057220459,0.20100000500679016 12.121999740600586,-3.9070000648498535 13.586999893188477,-11.96399974822998 C13.586999893188477,-11.96399974822998 16.538999557495117,-28.197999954223633 16.538999557495117,-28.197999954223633 C16.538999557495117,-28.197999954223633 14.484000205993652,-28.197999954223633 14.484000205993652,-28.197999954223633 C14.484000205993652,-28.197999954223633 11.54699993133545,-12.045000076293945 11.54699993133545,-12.045000076293945 C10.265000343322754,-4.994999885559082 6.321000099182129,-1.6920000314712524 0.4399999976158142,-1.6920000314712524 C-5.440999984741211,-1.6920000314712524 -8.225000381469727,-4.994999885559082 -6.942999839782715,-12.045000076293945 C-6.942999839782715,-12.045000076293945 -4.00600004196167,-28.197999954223633 -4.00600004196167,-28.197999954223633 C-4.00600004196167,-28.197999954223633 -6.059999942779541,-28.197999954223633 -6.059999942779541,-28.197999954223633 C-6.059999942779541,-28.197999954223633 -9.01200008392334,-11.96399974822998 -9.01200008392334,-11.96399974822998 C-10.47700023651123,-3.9070000648498535 -6.953000068664551,0.20100000500679016 0.0560000017285347,0.20100000500679016z"></path></g></g><g transform="matrix(1,0,0,1,111.4800033569336,64.0989990234375)" opacity="1" style="display: block;"><g opacity="1" transform="matrix(1,0,0,1,0,0)"><path fill="rgb(0,0,0)" fill-opacity="1" d=" M-5.423999786376953,-11.038000106811523 C-5.423999786376953,-11.038000106811523 -2.6410000324249268,-26.344999313354492 -2.6410000324249268,-26.344999313354492 C-2.6410000324249268,-26.344999313354492 5.415999889373779,-26.344999313354492 5.415999889373779,-26.344999313354492 C11.458000183105469,-26.344999313354492 14.175999641418457,-23.565000534057617 13.289999961853027,-18.69099998474121 C12.41100025177002,-13.857000350952148 8.675000190734863,-11.038000106811523 2.632999897003174,-11.038000106811523 C2.632999897003174,-11.038000106811523 -5.423999786376953,-11.038000106811523 -5.423999786376953,-11.038000106811523z M12.428999900817871,0 C12.428999900817871,0 7.173999786376953,-9.869000434875488 7.173999786376953,-9.869000434875488 C11.590999603271484,-11.118000030517578 14.571000099182129,-14.220000267028809 15.383999824523926,-18.69099998474121 C16.468000411987305,-24.652999877929688 12.843000411987305,-28.197999954223633 5.752999782562256,-28.197999954223633 C5.752999782562256,-28.197999954223633 -4.357999801635742,-28.197999954223633 -4.357999801635742,-28.197999954223633 C-4.357999801635742,-28.197999954223633 -9.484999656677246,0 -9.484999656677246,0 C-9.484999656677246,0 -7.431000232696533,0 -7.431000232696533,0 C-7.431000232696533,0 -5.752999782562256,-9.225000381469727 -5.752999782562256,-9.225000381469727 C-5.752999782562256,-9.225000381469727 2.302999973297119,-9.225000381469727 2.302999973297119,-9.225000381469727 C3.2699999809265137,-9.225000381469727 4.171000003814697,-9.305000305175781 5.078999996185303,-9.425999641418457 C5.078999996185303,-9.425999641418457 10.093000411987305,0 10.093000411987305,0 C10.093000411987305,0 12.428999900817871,0 12.428999900817871,0z"></path></g></g><g transform="matrix(1,0,0,1,81.4800033569336,64.0989990234375)" opacity="1" style="display: block;"><g opacity="1" transform="matrix(1,0,0,1,0,0)"><path fill="rgb(0,0,0)" fill-opacity="1" d=" M2.4820001125335693,0.20100000500679016 C6.46999979019165,0.20100000500679016 10.29699993133545,-1.128000020980835 13.229999542236328,-3.746000051498413 C13.229999542236328,-3.746000051498413 12.182999610900879,-5.076000213623047 12.182999610900879,-5.076000213623047 C9.333999633789062,-2.6989998817443848 6.210000038146973,-1.6920000314712524 2.9070000648498535,-1.6920000314712524 C-4.303999900817871,-1.6920000314712524 -8.774999618530273,-7.008999824523926 -7.486000061035156,-14.098999977111816 C-6.197000026702881,-21.18899917602539 0.20800000429153442,-26.506000518798828 7.419000148773193,-26.506000518798828 C10.722000122070312,-26.506000518798828 13.487000465393066,-25.540000915527344 15.472000122070312,-23.163000106811523 C15.472000122070312,-23.163000106811523 17.00200080871582,-24.492000579833984 17.00200080871582,-24.492000579833984 C15.020999908447266,-27.110000610351562 11.670000076293945,-28.399999618530273 7.682000160217285,-28.399999618530273 C-0.6970000267028809,-28.399999618530273 -8.04699993133545,-22.316999435424805 -9.541000366210938,-14.098999977111816 C-11.03499984741211,-5.88100004196167 -5.896999835968018,0.20100000500679016 2.4820001125335693,0.20100000500679016z"></path></g></g><g transform="matrix(1,0,0,1,53.47999954223633,64.0989990234375)" opacity="1" style="display: block;"><g opacity="1" transform="matrix(1,0,0,1,0,0)"><path fill="rgb(0,0,0)" fill-opacity="1" d=" M-6.073999881744385,-1.8530000448226929 C-6.073999881744385,-1.8530000448226929 -3.9719998836517334,-13.413999557495117 -3.9719998836517334,-13.413999557495117 C-3.9719998836517334,-13.413999557495117 11.053999900817871,-13.413999557495117 11.053999900817871,-13.413999557495117 C11.053999900817871,-13.413999557495117 11.383999824523926,-15.22700023651123 11.383999824523926,-15.22700023651123 C11.383999824523926,-15.22700023651123 -3.6419999599456787,-15.22700023651123 -3.6419999599456787,-15.22700023651123 C-3.6419999599456787,-15.22700023651123 -1.621000051498413,-26.344999313354492 -1.621000051498413,-26.344999313354492 C-1.621000051498413,-26.344999313354492 15.177000045776367,-26.344999313354492 15.177000045776367,-26.344999313354492 C15.177000045776367,-26.344999313354492 15.513999938964844,-28.197999954223633 15.513999938964844,-28.197999954223633 C15.513999938964844,-28.197999954223633 -3.3380000591278076,-28.197999954223633 -3.3380000591278076,-28.197999954223633 C-3.3380000591278076,-28.197999954223633 -8.46500015258789,0 -8.46500015258789,0 C-8.46500015258789,0 10.991999626159668,0 10.991999626159668,0 C10.991999626159668,0 11.329000473022461,-1.8530000448226929 11.329000473022461,-1.8530000448226929 C11.329000473022461,-1.8530000448226929 -6.073999881744385,-1.8530000448226929 -6.073999881744385,-1.8530000448226929z"></path></g></g><g transform="matrix(1,0,0,1,24.979999542236328,64.0989990234375)" opacity="1" style="display: block;"><g opacity="1" transform="matrix(1,0,0,1,0,0)"><path fill="rgb(0,0,0)" fill-opacity="1" d=" M-5.423999786376953,-11.038000106811523 C-5.423999786376953,-11.038000106811523 -2.6410000324249268,-26.344999313354492 -2.6410000324249268,-26.344999313354492 C-2.6410000324249268,-26.344999313354492 5.415999889373779,-26.344999313354492 5.415999889373779,-26.344999313354492 C11.458000183105469,-26.344999313354492 14.175999641418457,-23.565000534057617 13.289999961853027,-18.69099998474121 C12.41100025177002,-13.857000350952148 8.675000190734863,-11.038000106811523 2.632999897003174,-11.038000106811523 C2.632999897003174,-11.038000106811523 -5.423999786376953,-11.038000106811523 -5.423999786376953,-11.038000106811523z M12.428999900817871,0 C12.428999900817871,0 7.173999786376953,-9.869000434875488 7.173999786376953,-9.869000434875488 C11.590999603271484,-11.118000030517578 14.571000099182129,-14.220000267028809 15.383999824523926,-18.69099998474121 C16.468000411987305,-24.652999877929688 12.843000411987305,-28.197999954223633 5.752999782562256,-28.197999954223633 C5.752999782562256,-28.197999954223633 -4.357999801635742,-28.197999954223633 -4.357999801635742,-28.197999954223633 C-4.357999801635742,-28.197999954223633 -9.484999656677246,0 -9.484999656677246,0 C-9.484999656677246,0 -7.431000232696533,0 -7.431000232696533,0 C-7.431000232696533,0 -5.752999782562256,-9.225000381469727 -5.752999782562256,-9.225000381469727 C-5.752999782562256,-9.225000381469727 2.302999973297119,-9.225000381469727 2.302999973297119,-9.225000381469727 C3.2699999809265137,-9.225000381469727 4.171000003814697,-9.305000305175781 5.078999996185303,-9.425999641418457 C5.078999996185303,-9.425999641418457 10.093000411987305,0 10.093000411987305,0 C10.093000411987305,0 12.428999900817871,0 12.428999900817871,0z"></path></g></g></g></svg>