<svg width="922" height="922" viewBox="0 0 922 922" fill="none" xmlns="http://www.w3.org/2000/svg" preserveAspectRatio="none" style="width: 57.625rem;">
<path fill-rule="evenodd" clip-rule="evenodd" d="M243.331 67.1033L237.523 58.1144L185.885 91.5075L191.701 100.496L212.194 87.242L243.604 135.801L254.248 128.917L222.838 80.3577L243.331 67.1033ZM318.538 62.9985L330.162 91.9172L341.923 87.1938L316.361 23.6128L304.601 28.3362L314.546 53.0697L285.538 64.7255L275.601 39.9921L263.84 44.7155L289.394 108.304L301.154 103.573L289.53 74.6544L318.538 62.9985ZM369.517 48.5472L405.113 41.7673L403.265 32.0796L367.67 38.8594L364.489 22.1749L403.04 14.8328L401.032 4.31762L350.133 14.0134L362.954 81.3297L415.331 71.3527L413.331 60.8376L373.309 68.4609L369.517 48.5472ZM472.994 69.2561L485.614 70.3727L488.201 41.1087L520.647 43.9684L521.587 33.3086L489.141 30.4489L490.699 12.7764L526.511 15.9333L527.451 5.2735L479.019 1L472.994 69.2561ZM612.443 25.87L600.24 22.4641L588.664 63.866C585.909 73.7145 579.298 78.2049 569.256 75.3933C559.134 72.5657 555.808 65.2959 558.564 55.4475L570.14 14.0455L557.937 10.6315L546.763 50.5875C541.855 68.1235 548.273 81.418 566.179 86.4226C583.989 91.403 596.368 83.362 601.277 65.826L612.443 25.87ZM690.261 73.4092L695.057 63.8419L640.093 36.2889L635.298 45.8561L657.116 56.797L631.2 108.489L642.527 114.168L668.443 62.4763L690.261 73.4092ZM764.818 114.458L754.792 106.706L728.491 140.718C722.233 148.807 714.417 150.478 706.175 144.107C697.86 137.673 697.507 129.688 703.765 121.591L730.066 87.5874L720.04 79.8356L694.663 112.658C683.521 127.061 684.469 141.794 699.17 153.161C713.798 164.479 728.298 161.683 739.441 147.28L764.818 114.458ZM790.098 138.645L738.525 183.774L746.871 193.309L767.075 175.629L778.643 188.843C783.093 193.928 780.354 199.069 775.976 202.901L769.758 208.339C767.565 210.259 765.934 211.809 765.733 214.862L775.438 225.947C774.931 221.529 776.771 218.918 780.024 216.075L785.246 211.504C788.781 208.411 792.171 204.443 791.833 199.503C791.592 196.225 790.146 193.864 788.459 191.221C792.147 193.864 794.95 195.647 799.682 195.631C803.972 195.559 808.092 193.945 811.29 191.084C820.408 183.107 818.729 171.347 811.37 162.945L790.098 138.645ZM775.132 168.584L790.396 155.225L802.204 168.72C806.101 173.171 805.57 178.127 801.12 182.023C795.746 186.722 790.098 185.678 785.583 180.521L775.132 168.584ZM817.468 234.093L836.024 265.221L844.491 260.176L825.935 229.048L840.531 220.348L860.622 254.055L869.812 248.568L843.278 204.065L784.411 239.153L811.716 284.957L820.914 279.471L800.051 244.479L817.468 234.093ZM901.64 328.761L897.832 316.68L832.474 337.292L836.289 349.374L901.64 328.761ZM864.077 373.995L861.907 361.512C857.24 362.604 853.963 364.034 850.589 367.095C843.423 373.585 842.748 384.47 844.323 393.531C845.753 401.757 848.99 410.537 856.059 415.59C858.217 417.126 860.662 418.21 863.25 418.776C865.837 419.342 868.512 419.378 871.114 418.883C881.477 417.084 886.015 408.673 886.489 398.777L887.317 380.534C887.55 375.827 888.714 370.476 894.169 369.529C901.198 368.308 904.604 376.389 905.584 382.028C906.87 389.426 906.259 397.443 897.543 399.339L899.712 411.822C905.448 409.774 909.81 407.974 913.168 402.624C917.273 396.102 917.562 388.43 916.293 381.12C914.091 368.452 906.291 354.852 891.309 357.455C879.846 359.447 875.347 368.131 874.857 378.983L874.078 395.885C873.845 401.162 872.704 405.557 867.619 406.44C859.755 407.806 855.979 398.648 854.902 392.455C853.456 384.132 854.541 376.132 864.077 373.995ZM894.394 500.289L847.833 521.938L846.227 535.353L914.26 543.515L915.714 531.401L876.383 526.686L860.943 526.156L872.833 522.38L919.393 500.739L921 487.316L852.966 479.163L851.512 491.276L890.843 495.992L906.283 496.522L894.394 500.289ZM853.722 630.214C873.017 636.745 892.024 628.905 898.708 609.168C905.6 588.805 894.659 571.622 875.098 565.003C855.441 558.352 836.378 565.477 829.517 585.752C823.227 604.34 831.485 622.696 853.722 630.214ZM871.266 577.783C883.364 581.872 892.337 592.243 887.855 605.497C883.22 619.193 869.643 621.531 857.369 617.378C845.013 613.201 835.647 603.087 840.282 589.399C845.094 575.173 858.903 573.598 871.266 577.783ZM847.391 710.456L854.557 698.993L820.472 666.733L813.652 661.366L821.613 664.564L867.193 678.774L874.552 666.989L805.297 648.506L798.533 659.334L832.562 691.667L839.993 697.86L831.172 693.9L787.19 677.481L780.426 688.309L827.397 742.451L834.755 730.667L802.06 695.852L795.641 690.181L803.457 693.956L847.391 710.456ZM685.409 850.647L691.265 859.604L742.726 825.946L736.87 816.989L716.441 830.348L684.79 781.957L674.186 788.89L705.829 837.288L685.409 850.647ZM611.174 856.045L599.011 827.344L587.339 832.292L614.082 895.391L625.754 890.443L615.351 865.894L644.134 853.7L654.537 878.249L666.201 873.308L639.467 810.209L627.794 815.15L639.957 843.852L611.174 856.045ZM560.5 871.429L525.033 878.867L527.057 888.515L562.524 881.076L566.011 897.704L527.612 905.761L529.805 916.237L580.519 905.593L566.445 838.534L514.26 849.483L516.462 859.949L556.331 851.587L560.5 871.429ZM456.662 852.64L444.018 851.756L441.977 881.068L409.475 878.803L408.736 889.479L441.23 891.744L440.001 909.441L404.133 906.942L403.386 917.618L451.898 921L456.662 852.64ZM317.976 898.556L330.243 901.745L341.064 860.134C343.634 850.238 350.173 845.635 360.255 848.254C370.425 850.896 373.887 858.102 371.317 868.007L360.488 909.609L372.755 912.798L383.198 872.65C387.785 855.025 381.125 841.851 363.139 837.168C345.241 832.517 333.006 840.775 328.419 858.399L317.976 898.556ZM239.322 852.463L234.703 862.11L290.165 888.651L294.784 878.996L272.765 868.464L297.724 816.306L286.301 810.836L261.334 862.994L239.322 852.463ZM164.051 812.828L174.213 820.395L199.879 785.902C205.993 777.7 213.777 775.884 222.139 782.102C230.574 788.376 231.072 796.352 224.959 804.562L199.293 839.056L209.463 846.623L234.229 813.334C245.106 798.722 243.885 784.014 228.976 772.912C214.138 761.875 199.686 764.936 188.817 779.548L164.051 812.828ZM138.337 789.131L189.05 743.046L180.535 733.671L160.661 751.721L148.852 738.732C144.313 733.727 146.948 728.538 151.262 724.626L157.375 719.067C159.528 717.115 161.135 715.533 161.279 712.48L151.366 701.571C151.953 705.99 150.161 708.624 146.972 711.532L141.831 716.199C138.353 719.356 135.035 723.381 135.469 728.321C135.774 731.591 137.26 733.92 138.995 736.531C135.26 733.96 132.416 732.233 127.692 732.338C123.404 732.485 119.313 734.177 116.173 737.101C107.208 745.239 109.103 756.959 116.615 765.233L138.337 789.131ZM152.74 758.919L137.734 772.551L125.676 759.288C121.7 754.91 122.133 749.946 126.511 745.97C131.789 741.174 137.461 742.106 142.072 747.175L152.74 758.919ZM109.184 694.149L90.0646 663.375L81.686 668.572L100.813 699.354L86.3774 708.319L65.6677 674.99L56.5821 680.637L83.9193 724.65L142.136 688.494L113.996 643.204L104.91 648.843L126.407 683.457L109.184 694.149ZM23.2842 601.055L27.3169 613.064L92.2818 591.247L88.2412 579.237L23.2842 601.055ZM59.9962 555.146L62.3982 567.598C67.0494 566.409 70.2948 564.923 73.6126 561.798C80.6577 555.179 81.1398 544.286 79.3966 535.249C77.806 527.047 74.4079 518.331 67.2423 513.407C65.0563 511.91 62.5897 510.871 59.9912 510.353C57.3928 509.836 54.7165 509.85 52.1236 510.395C41.8009 512.387 37.4148 520.878 37.1256 530.782L36.6355 549.041C36.4909 553.757 35.4225 559.123 29.984 560.175C22.979 561.525 19.4283 553.516 18.3439 547.893C16.922 540.518 17.3799 532.493 26.0638 530.429L23.6619 517.986C17.9583 520.139 13.6363 522.027 10.3829 527.433C6.39035 534.036 6.24574 541.715 7.65155 548.993C10.0937 561.621 18.135 575.084 33.0688 572.2C44.5001 569.999 48.838 561.227 49.1272 550.359L49.5931 533.449C49.7217 528.164 50.7821 523.754 55.8511 522.774C63.6915 521.263 67.6439 530.349 68.8328 536.526C70.4314 544.816 69.4996 552.841 59.9962 555.146ZM27.3652 429.406L73.5162 406.914L74.8738 393.467L6.70369 386.559L5.47458 398.704L44.8857 402.697L60.3336 402.938L48.5087 406.93L2.35767 429.422L1 442.87L69.1702 449.778L70.3993 437.64L30.9882 433.648L15.5403 433.399L27.3652 429.406ZM65.6356 298.822C46.2273 292.645 27.3732 300.831 21.0591 320.688C14.5441 341.172 25.7906 358.146 45.4721 364.404C65.2419 370.685 84.1603 363.215 90.6512 342.819C96.5958 324.126 88.0002 305.932 65.6356 298.822ZM49.063 351.559C36.9007 347.687 27.7347 337.485 31.9682 324.158C36.3544 310.39 49.8824 307.795 62.2295 311.723C74.657 315.676 84.2084 325.604 79.8223 339.381C75.2754 353.688 61.4985 355.511 49.063 351.559ZM70.4636 218.477L63.5148 230.068L98.1943 261.686L105.119 266.932L97.1018 263.879L51.2561 250.52L44.1145 262.433L113.707 279.632L120.27 268.675L85.6383 236.977L78.1031 230.928L86.9879 234.727L131.275 250.319L137.838 239.37L89.8638 186.104L82.7222 198.025L116.068 232.229L122.591 237.788L114.695 234.149L70.4636 218.477Z" stroke="#FF0F47" stroke-linejoin="round"></path>
</svg>