<svg width="501" height="180" viewBox="0 0 501 180" fill="none" xmlns="http://www.w3.org/2000/svg" preserveAspectRatio="none" style="width: 31.3125rem;">
<path d="M49.6054 117.079C50.0428 116.95 50.392 117.03 50.653 117.32C50.9395 117.574 51.0556 117.885 51.0013 118.254C50.9725 118.587 50.7232 118.82 50.2536 118.954C47.848 119.667 45.5236 121.697 43.2805 125.045C41.0305 128.361 39.096 131.598 37.4767 134.756C30.1893 147.639 24.8598 152.324 21.4882 148.811C18.1557 145.325 17.1029 136.402 18.3299 122.041C18.8983 116.443 19.8141 112.32 21.0773 109.674C22.366 106.991 23.73 105.363 25.1693 104.792C26.6018 104.189 27.8377 104.222 28.8768 104.891C29.9414 105.523 30.5372 106.372 30.6642 107.437C30.8167 109.089 30.7352 110.266 30.4198 110.968C30.0976 111.639 29.6424 112.231 29.0541 112.744C28.5557 113.21 27.9818 113.869 27.3324 114.719C26.7152 115.564 26.0896 116.837 25.4554 118.538C24.4515 121.311 23.5366 124.892 22.7106 129.28C21.8778 133.637 21.5062 137.663 21.5957 141.36C21.7107 145.02 22.6268 147.217 24.344 147.951C25.8951 148.217 27.6566 146.974 29.6285 144.224C31.6393 141.501 33.7697 138.17 36.0197 134.23C38.251 130.359 40.5111 126.779 42.8 123.49C45.1143 120.165 47.3828 118.028 49.6054 117.079ZM32.7859 97.2781C33.074 98.9431 32.6679 100.234 31.5675 101.149C30.4605 102.033 29.2187 102.362 27.8421 102.137C26.4588 101.879 25.5291 100.866 25.0528 99.0969C24.8716 97.1536 25.3447 95.7878 26.4722 94.9994C27.625 94.1745 28.8744 93.9592 30.2204 94.3535C31.5597 94.716 32.4148 95.6909 32.7859 97.2781ZM101.307 106.18C101.775 105.882 102.236 105.864 102.691 106.126C103.171 106.351 103.474 106.685 103.601 107.126C103.76 107.562 103.609 107.945 103.148 108.275C90.9671 115.799 80.309 124.939 71.174 135.695C72.0056 143.813 70.9268 150.914 67.9375 156.997C64.9482 163.08 61.4945 167.606 57.5765 170.575C53.6975 173.571 50.8197 174.483 48.9431 173.313C47.0412 172.179 47.6026 168.42 50.6276 162.037C55.9397 152.2 60.0878 145.554 63.0718 142.098C65.5064 139.182 66.7764 136.879 66.8816 135.189C66.9801 133.468 65.5546 130.984 62.6052 127.738C58.2081 122.996 55.1918 118.266 53.5563 113.548C51.9208 108.83 53.6352 104.246 58.6993 99.7967C61.573 97.5386 64.1524 96.4725 66.4376 96.5984C68.7228 96.7242 70.4138 97.4129 71.5105 98.6644C72.6394 99.9111 72.8741 101.091 72.2146 102.206C71.1634 103.508 69.8418 104.555 68.2499 105.345C66.8445 106.076 65.5382 107.038 64.331 108.232C63.1493 109.389 62.3939 111.223 62.0648 113.733C62.0357 116.561 63.2145 119.524 65.6012 122.622C67.6098 125.349 69.2565 128.638 70.5411 132.488C70.636 132.934 71.2947 132.361 72.5171 130.771C74.8213 126.463 84.4181 118.266 101.307 106.18ZM66.822 147.311C67.4665 144.722 67.7413 142.269 67.6466 139.952C59.6746 150.243 54.6881 157.865 52.6872 162.819C50.6864 167.773 50.5192 170.342 52.1856 170.525C53.8198 170.713 56.1357 168.799 59.1333 164.783C62.1631 160.762 64.726 154.938 66.822 147.311ZM257.108 65.8372C257.382 65.4425 257.735 65.2729 258.165 65.3282C258.595 65.3836 258.969 65.5949 259.286 65.9622C259.591 66.2722 259.671 66.6447 259.524 67.0797C254.027 78.0462 247.916 87.3888 241.19 95.1075C234.522 102.818 228.505 106.71 223.141 106.784C217.776 106.859 214.365 100.945 212.908 89.0446C212.527 77.991 213.47 69.0784 215.734 62.3067C216.72 58.7945 217.068 56.4982 216.779 55.4177C216.547 54.3289 214.997 54.9098 212.128 57.1606C202.433 65.2538 194.4 75.261 188.031 87.1822C181.661 99.1034 176.655 109.703 173.01 118.981C169.851 126.887 167.53 131.57 166.047 133.027C164.576 134.542 163.713 130.768 163.457 121.705C163.017 102.506 163.689 87.694 165.475 77.2694C167.307 66.7791 169.69 59.5766 172.622 55.6619C175.555 51.7472 178.498 49.9878 181.452 50.3837C184.452 50.7138 186.893 52.071 188.775 54.4551C190.646 56.782 191.44 58.9705 191.16 61.0206C190.851 62.6611 190.551 63.9164 190.258 64.7865C190.01 65.5908 189.726 66.2231 189.406 66.6836C189.144 67.1355 188.84 67.5344 188.495 67.8803C187.897 68.4403 187.106 69.5012 186.124 71.0629C185.129 72.5673 183.804 75.3313 182.15 79.3547C180.541 83.3124 178.46 89.2596 175.905 97.1964C173.262 105.56 172.051 109.843 172.274 110.047C172.497 110.251 173.802 107.815 176.188 102.739C179.155 96.4558 183.135 88.7541 188.128 79.634C193.167 70.448 198.594 62.3871 204.411 55.4512C210.286 48.5069 215.989 45.2512 221.522 45.6841C226.294 46.7599 228.538 50.4208 228.254 56.6669C228.015 62.8473 226.988 69.6746 225.171 77.149C224.671 79.2903 224.216 81.3659 223.807 83.3756C221.575 95.638 222.356 101.551 226.149 101.116C230 100.671 234.977 96.8126 241.081 89.5393C247.172 82.2088 252.514 74.308 257.108 65.8372ZM481.337 33.8878C482.332 33.5061 483.163 33.6211 483.831 34.2326C484.557 34.8356 484.954 35.5754 485.021 36.452C485.088 37.3286 484.637 38.015 483.666 38.5113C477.795 41.2596 471.289 43.2734 464.148 44.5526C457.066 45.8233 450.313 45.2732 443.89 42.9021C438.017 61.369 429.315 72.8627 417.783 77.3832C406.239 81.8465 397.274 75.6806 390.889 58.8858C378.681 80.1688 368.145 91.1917 359.28 91.9544C350.416 92.7172 344.621 87.6839 341.897 76.8543C339.173 66.0248 340.896 53.896 347.064 40.4678C345.022 40.7068 341.73 41.2468 337.186 42.0876C332.63 42.8712 328.086 43.712 323.555 44.6102C319.023 45.5084 315.784 46.1587 313.837 46.5612C315.927 56.6561 315.149 66.3425 311.505 75.6202C307.848 84.8406 303.196 93.7338 297.547 102.3C288.772 115.281 281.088 119.063 274.495 113.644C267.959 108.216 264.071 98.7977 262.83 85.3879C261.635 71.9124 264.616 59.6588 271.773 48.6272C274.205 45.731 277.05 44.6359 280.309 45.3418C283.556 45.9904 286.093 47.6585 287.921 50.3461C289.806 53.0253 289.853 55.9139 288.062 59.0119C281.906 73.6202 278.455 84.7901 277.71 92.5217C277.023 100.245 277.866 104.908 280.24 106.511C282.672 108.106 285.581 107.031 288.969 103.287C301.002 88.7655 307.803 77.0472 309.373 68.1316C310.93 59.1587 311.008 52.6472 309.608 48.5971C309.3 46.8693 309.164 45.5301 309.201 44.5792C309.237 43.6284 309.772 43.0481 310.803 42.8384C311.093 42.7961 313.092 42.3565 316.799 41.5195C320.495 40.6253 324.919 39.5064 330.073 38.1627C335.227 36.8191 340.096 35.399 344.68 33.9023C349.263 32.4056 352.576 30.9764 354.617 29.6146C356.198 28.6156 357.931 28.3329 359.817 28.7666C361.749 29.1345 363.262 30.0658 364.357 31.5603C365.44 32.9976 365.597 34.7179 364.828 36.7211C353.715 63.9897 351.357 79.1661 357.752 82.2503C364.206 85.326 374.687 74.0452 389.196 48.4079C389.688 47.6271 390.345 47.206 391.169 47.1448C391.993 47.0835 392.756 47.2971 393.458 47.7856C394.217 48.2655 394.689 48.9353 394.872 49.7949C397.345 62.2565 401.477 69.3055 407.265 70.942C413.041 72.5211 418.948 70.3585 424.984 64.4542C431.066 58.4841 435.751 50.4431 439.038 40.3311C432.673 35.7061 429.058 30.7977 428.192 25.606C427.325 20.4143 428.075 15.9321 430.44 12.1593C432.805 8.38661 435.553 6.27163 438.684 5.81439C441.873 5.34869 444.282 7.5378 445.911 12.3817C447.54 17.2257 447.25 25.6886 445.039 37.7706C450.916 40.1032 457.1 40.6479 463.59 39.4045C470.081 38.1612 475.996 36.3222 481.337 33.8878ZM437.052 31.8461C438.734 33.846 439.8 34.7834 440.252 34.6584C440.691 34.476 440.998 33.2494 441.172 30.9785C441.261 30.5519 441.337 30.0681 441.401 29.5269C442.204 22.9095 442.191 18.2137 441.361 15.4394C440.589 12.6567 439.479 11.3711 438.029 11.5828C436.568 11.7372 435.284 12.8701 434.18 14.9814C433.12 17.027 432.682 19.6024 432.865 22.7075C433.094 25.7469 434.49 28.7931 437.052 31.8461Z" fill="white" fill-opacity="0.4"></path>
</svg>