<svg xmlns="http://www.w3.org/2000/svg" xmlns:xlink="http://www.w3.org/1999/xlink" viewBox="0 0 300 300" width="300" height="300" preserveAspectRatio="xMidYMid meet" style="width: 100%; height: 100%; transform: translate3d(0px, 0px, 0px); content-visibility: visible;"><defs><clipPath id="__lottie_element_132"><rect width="300" height="300" x="0" y="0"></rect></clipPath><g id="__lottie_element_136"><g style="display: block;" transform="matrix(1,0,0,1,149.19700622558594,248.69400024414062)" opacity="1" fill="rgb(217,43,68)" font-size="280" font-family="Montserrat" font-style="normal" font-weight="normal" aria-label="H"><g stroke-linecap="butt" stroke-linejoin="round" stroke-miterlimit="4" transform="matrix(1,0,0,1,-113.4000015258789,0)" opacity="1" style="display: inherit;"><g><g transform="matrix(1,0,0,1,0,0)" opacity="1" style="display: block;"><path d=" M165.24,-197.39 C165.24,-197.39 165.24,-115.89 165.24,-115.89 C165.24,-115.89 63.17,-115.89 63.17,-115.89 C63.17,-115.89 63.17,-197.39 63.17,-197.39 C63.17,-197.39 26.51,-197.39 26.51,-197.39 C26.51,-197.39 26.51,0 26.51,0 C26.51,0 63.17,0 63.17,0 C63.17,0 63.17,-84.59 63.17,-84.59 C63.17,-84.59 165.24,-84.59 165.24,-84.59 C165.24,-84.59 165.24,0 165.24,0 C165.24,0 201.9,0 201.9,0 C201.9,0 201.9,-197.39 201.9,-197.39 C201.9,-197.39 165.24,-197.39 165.24,-197.39z"></path><g opacity="1" transform="matrix(2.799999952316284,0,0,2.799999952316284,0,0)"></g></g></g></g></g></g><clipPath id="__lottie_element_140"><path d="M0,0 L300,0 L300,300 L0,300z"></path></clipPath><mask id="__lottie_element_136_1" mask-type="alpha"><use xlink:href="#__lottie_element_136"></use></mask></defs><g clip-path="url(#__lottie_element_132)"><g mask="url(#__lottie_element_136_1)" style="display: block;"><g clip-path="url(#__lottie_element_140)" transform="matrix(1,0,0,1,11,0)" opacity="1"><g transform="matrix(1,0,0,1,240,-176)" opacity="1" style="display: block;"><g opacity="1" transform="matrix(3.109999895095825,0,0,1,-136,390)"><path fill="rgb(217,43,68)" fill-opacity="1" d=" M18,-232 C18,-232 18,232 18,232 C18,232 -18,232 -18,232 C-18,232 -18,-232 -18,-232 C-18,-232 18,-232 18,-232z"></path></g></g><g transform="matrix(1,0,0,1,310,-176)" opacity="1" style="display: block;"><g opacity="1" transform="matrix(3.109999895095825,0,0,1,-136,390)"><path fill="rgb(217,43,68)" fill-opacity="1" d=" M18,-232 C18,-232 18,232 18,232 C18,232 -18,232 -18,232 C-18,232 -18,-232 -18,-232 C-18,-232 18,-232 18,-232z"></path></g></g></g></g><g transform="matrix(1,0,0,1,149.19700622558594,248.69400024414062)" opacity="1" style="display: block;"><g opacity="1" transform="matrix(1,0,0,1,0,0)"><path stroke-linecap="butt" stroke-linejoin="miter" fill-opacity="0" stroke-miterlimit="4" stroke="rgb(216,43,68)" stroke-opacity="1" stroke-width="2" d=" M87.73100280761719,-197.38800048828125 C82.45800018310547,-197.38800048828125 51.84199905395508,-197.38800048828125 51.84199905395508,-197.38800048828125 C51.84199905395508,-197.38800048828125 51.84199905395508,-197.38800048828125 51.84199905395508,-197.38800048828125 C51.84199905395508,-197.38800048828125 51.84199905395508,-115.8949966430664 51.84199905395508,-115.8949966430664 C51.84199905395508,-115.8949966430664 -50.236000061035156,-115.8949966430664 -50.236000061035156,-115.8949966430664 C-50.236000061035156,-115.8949966430664 -50.236000061035156,-197.38800048828125 -50.236000061035156,-197.38800048828125 C-50.236000061035156,-197.38800048828125 -86.89299774169922,-197.38800048828125 -86.89299774169922,-197.38800048828125 C-86.89299774169922,-197.38800048828125 -86.89299774169922,0 -86.89299774169922,0 C-86.89299774169922,0 -50.236000061035156,0 -50.236000061035156,0 C-50.236000061035156,0 -50.236000061035156,-84.59500122070312 -50.236000061035156,-84.59500122070312 C-50.236000061035156,-84.59500122070312 51.84199905395508,-84.59500122070312 51.84199905395508,-84.59500122070312 C51.84199905395508,-84.59500122070312 51.84199905395508,0 51.84199905395508,0 C51.84199905395508,0 88.5,0 88.5,0 C88.5,0 88.5,-197.38800048828125 88.5,-197.38800048828125 C88.5,-197.38800048828125 88.22799682617188,-197.38800048828125 87.73100280761719,-197.38800048828125"></path></g></g></g></svg>