<svg xmlns="http://www.w3.org/2000/svg" xmlns:xlink="http://www.w3.org/1999/xlink" viewBox="0 0 300 300" width="300" height="300" preserveAspectRatio="xMidYMid meet" style="width: 100%; height: 100%; transform: translate3d(0px, 0px, 0px); content-visibility: visible;"><defs><clipPath id="__lottie_element_61"><rect width="300" height="300" x="0" y="0"></rect></clipPath><g id="__lottie_element_65"><g transform="matrix(1,0,0,1,149.19700622558594,248.69400024414062)" opacity="1" fill="rgb(217,43,68)" font-size="280" font-family="Montserrat" font-style="normal" font-weight="normal" aria-label="O" style="display: block;"><g stroke-linecap="butt" stroke-linejoin="round" stroke-miterlimit="4" transform="matrix(1,0,0,1,-117.87999725341797,0)" opacity="1" style="display: inherit;"><g><g transform="matrix(1,0,0,1,0,0)" opacity="1" style="display: block;"><path d=" M118.71,-29.33 C78.95,-29.33 49.35,-58.37 49.35,-98.69 C49.35,-139.02 78.95,-168.06 118.71,-168.06 C158.47,-168.06 188.08,-139.02 188.08,-98.69 C188.08,-58.37 158.47,-29.33 118.71,-29.33z M118.71,2.82 C179.91,2.82 225.02,-40.04 225.02,-98.69 C225.02,-157.35 179.91,-200.21 118.71,-200.21 C57.52,-200.21 12.41,-157.07 12.41,-98.69 C12.41,-40.32 57.52,2.82 118.71,2.82z"></path><g opacity="1" transform="matrix(2.799999952316284,0,0,2.799999952316284,0,0)"></g></g></g></g></g></g><clipPath id="__lottie_element_69"><path d="M0,0 L300,0 L300,300 L0,300z"></path></clipPath><mask id="__lottie_element_65_1" mask-type="alpha"><use xlink:href="#__lottie_element_65"></use></mask></defs><g clip-path="url(#__lottie_element_61)"><g mask="url(#__lottie_element_65_1)" style="display: block;"><g clip-path="url(#__lottie_element_69)" transform="matrix(1,0,0,1,11,0)" opacity="1"><g transform="matrix(1,0,0,1,240,-176)" opacity="1" style="display: block;"><g opacity="1" transform="matrix(4.699999809265137,0,0,1,-136,390)"><path fill="rgb(217,43,68)" fill-opacity="1" d=" M18,-232 C18,-232 18,232 18,232 C18,232 -18,232 -18,232 C-18,232 -18,-232 -18,-232 C-18,-232 18,-232 18,-232z"></path></g></g><g transform="matrix(1,0,0,1,310,-176)" opacity="1" style="display: block;"><g opacity="1" transform="matrix(5.889999866485596,0,0,1,-136,390)"><path fill="rgb(217,43,68)" fill-opacity="1" d=" M18,-232 C18,-232 18,232 18,232 C18,232 -18,232 -18,232 C-18,232 -18,-232 -18,-232 C-18,-232 18,-232 18,-232z"></path></g></g></g></g><g transform="matrix(1,0,0,1,149.19700622558594,248.69400024414062)" opacity="1" style="display: block;"><g opacity="1" transform="matrix(1,0,0,1,0,0)"><path stroke-linecap="butt" stroke-linejoin="miter" fill-opacity="0" stroke-miterlimit="4" stroke="rgb(216,43,68)" stroke-opacity="1" stroke-width="2" d=" M42.154998779296875,-155.45199584960938 C59.43000030517578,-143.23599243164062 70.2030029296875,-123.01699829101562 70.2030029296875,-98.69400024414062 C70.2030029296875,-58.37099838256836 40.595001220703125,-29.326000213623047 0.8349999785423279,-29.326000213623047 C0.8349999785423279,-29.326000213623047 0.8349999785423279,-29.326000213623047 0.8349999785423279,-29.326000213623047 C-38.92499923706055,-29.326000213623047 -68.53199768066406,-58.37099838256836 -68.53199768066406,-98.69400024414062 C-68.53199768066406,-139.01699829101562 -38.92499923706055,-168.06199645996094 0.8349999785423279,-168.06199645996094 C16.61199951171875,-168.06199645996094 30.790000915527344,-163.48899841308594 42.154998779296875,-155.45199584960938 M-61.40399932861328,-182.37399291992188 C-88.56099700927734,-164.45899963378906 -105.47200012207031,-134.42999267578125 -105.47200012207031,-98.69400024414062 C-105.47200012207031,-40.32400131225586 -60.35499954223633,2.819999933242798 0.8349999785423279,2.819999933242798 C0.8349999785423279,2.819999933242798 0.8349999785423279,2.819999933242798 0.8349999785423279,2.819999933242798 C62.025001525878906,2.819999933242798 107.14299774169922,-40.04199981689453 107.14299774169922,-98.69400024414062 C107.14299774169922,-157.3459930419922 62.025001525878906,-200.20799255371094 0.8349999785423279,-200.20799255371094 C-22.89299964904785,-200.20799255371094 -44.202999114990234,-193.7209930419922 -61.40399932861328,-182.37399291992188"></path></g></g></g></svg>