<svg xmlns="http://www.w3.org/2000/svg" xmlns:xlink="http://www.w3.org/1999/xlink" viewBox="0 0 300 300" width="300" height="300" preserveAspectRatio="xMidYMid meet" style="width: 100%; height: 100%; transform: translate3d(0px, 0px, 0px); content-visibility: visible;"><defs><clipPath id="__lottie_element_115"><rect width="300" height="300" x="0" y="0"></rect></clipPath><g id="__lottie_element_119"><g style="display: block;" transform="matrix(1,0,0,1,149.19700622558594,248.69400024414062)" opacity="1" fill="rgb(217,43,68)" font-size="280" font-family="Montserrat" font-style="normal" font-weight="normal" aria-label="I"><g stroke-linecap="butt" stroke-linejoin="round" stroke-miterlimit="4" transform="matrix(1,0,0,1,-44.65999984741211,0)" opacity="1" style="display: inherit;"><g><g transform="matrix(1,0,0,1,0,0)" opacity="1" style="display: block;"><path d=" M26.51,0 C26.51,0 63.17,0 63.17,0 C63.17,0 63.17,-197.39 63.17,-197.39 C63.17,-197.39 26.51,-197.39 26.51,-197.39 C26.51,-197.39 26.51,0 26.51,0z"></path><g opacity="1" transform="matrix(2.799999952316284,0,0,2.799999952316284,0,0)"></g></g></g></g></g></g><clipPath id="__lottie_element_123"><path d="M0,0 L300,0 L300,300 L0,300z"></path></clipPath><mask id="__lottie_element_119_1" mask-type="alpha"><use xlink:href="#__lottie_element_119"></use></mask></defs><g clip-path="url(#__lottie_element_115)"><g mask="url(#__lottie_element_119_1)" style="display: block;"><g clip-path="url(#__lottie_element_123)" transform="matrix(1,0,0,1,-62,0)" opacity="1"><g transform="matrix(1,0,0,1,240,-176)" opacity="1" style="display: block;"><g opacity="1" transform="matrix(3.109999895095825,0,0,1,-136,390)"><path fill="rgb(217,43,68)" fill-opacity="1" d=" M18,-232 C18,-232 18,232 18,232 C18,232 -18,232 -18,232 C-18,232 -18,-232 -18,-232 C-18,-232 18,-232 18,-232z"></path></g></g><g transform="matrix(1,0,0,1,310,-176)" opacity="1" style="display: block;"><g opacity="1" transform="matrix(3.109999895095825,0,0,1,-136,390)"><path fill="rgb(217,43,68)" fill-opacity="1" d=" M18,-232 C18,-232 18,232 18,232 C18,232 -18,232 -18,232 C-18,232 -18,-232 -18,-232 C-18,-232 18,-232 18,-232z"></path></g></g></g></g><g transform="matrix(1,0,0,1,149.19700622558594,248.69400024414062)" opacity="1" style="display: block;"><g opacity="1" transform="matrix(1,0,0,1,0,0)"><path stroke-linecap="butt" stroke-linejoin="miter" fill-opacity="0" stroke-miterlimit="4" stroke="rgb(216,43,68)" stroke-opacity="1" stroke-width="2" d=" M18.506000518798828,-197.38800048828125 C18.506000518798828,-197.38800048828125 18.506000518798828,-197.38800048828125 18.506000518798828,-197.38800048828125 C18.506000518798828,-197.38800048828125 -18.150999069213867,-197.38800048828125 -18.150999069213867,-197.38800048828125 C-18.150999069213867,-197.38800048828125 -18.150999069213867,0 -18.150999069213867,0 C-18.150999069213867,0 -18.150999069213867,0 -18.150999069213867,0 C-18.150999069213867,0 18.506000518798828,0 18.506000518798828,0 C18.506000518798828,0 18.506000518798828,-197.38800048828125 18.506000518798828,-197.38800048828125"></path></g></g></g></svg>