<svg width="198" height="97" viewBox="0 0 198 97" fill="none" xmlns="http://www.w3.org/2000/svg" style="width: 12.375rem;">
<path d="M60.7344 53.9062C59.1094 59.2708 58.0781 64.0573 57.6406 68.2656C57.2135 72.474 57.3125 75.4479 57.9375 77.1875C58.5729 78.9375 59.6667 78.8021 61.2188 76.7812C61.3542 76.625 61.5104 76.5677 61.6875 76.6094C61.8646 76.651 62 76.75 62.0938 76.9062C62.1875 77.0729 62.1927 77.2448 62.1094 77.4219C61.1406 79.0469 60.0417 79.8594 58.8125 79.8594C57.5938 79.8698 56.6875 78.651 56.0938 76.2031C55.5104 73.7656 55.6875 69.7031 56.625 64.0156C58.0938 56.7865 59.5365 51.7552 60.9531 48.9219C61.9844 46.651 62.526 44.6823 62.5781 43.0156C62.5365 42.2552 62.3073 41.8073 61.8906 41.6719C61.474 41.526 60.9896 41.5573 60.4375 41.7656C59.8854 41.974 59.3958 42.2292 58.9688 42.5312C58.4375 42.9271 57.8281 43.4375 57.1406 44.0625C55.974 45.1771 54.7604 46.099 53.5 46.8281C52.25 47.5573 51.1562 47.4479 50.2188 46.5C49.1979 44.9583 49.2604 41.9844 50.4062 37.5781C51.5521 33.1719 53.026 28.6562 54.8281 24.0312C56.6406 19.3958 58.0312 15.974 59 13.7656C59.375 12.8802 59.5677 12.4062 59.5781 12.3438C59.6927 10.25 58.8958 9.44792 57.1875 9.9375C55.4792 10.4271 53.474 11.5469 51.1719 13.2969C48.8698 15.0365 46.8958 16.75 45.25 18.4375C44.4479 25.9688 42.2292 34.3854 38.5938 43.6875C34.9688 52.9896 30.8333 60.2031 26.1875 65.3281C21.8646 69.4844 18.5729 70.6198 16.3125 68.7344C14.0521 66.8594 14.6823 61.8438 18.2031 53.6875C21.7344 45.5417 30.0208 34.1458 43.0625 19.5C44.0521 11.5729 42.8229 7.19792 39.375 6.375C35.9375 5.54167 31.6302 7.09896 26.4531 11.0469C21.2865 14.9844 16.6146 20.151 12.4375 26.5469C9.29167 31.599 6.8125 36.5417 5 41.375C3.19792 46.1979 2.22396 49.875 2.07812 52.4062C1.93229 54.9479 2.76562 55.3073 4.57812 53.4844C4.82812 53.2448 5.09375 53.1615 5.375 53.2344C5.66667 53.3073 5.88542 53.4635 6.03125 53.7031C6.1875 53.9531 6.18229 54.224 6.01562 54.5156C4.54688 56.6823 3.17708 57.5573 1.90625 57.1406C0.635417 56.7344 0.09375 54.9323 0.28125 51.7344C0.46875 48.526 2.01562 43.8229 4.92188 37.625C12.7344 22.5312 20.8073 12.6354 29.1406 7.9375C37.4844 3.23958 42.75 4.35938 44.9375 11.2969C45.4792 14.3177 45.625 16.151 45.375 16.7969C45.3438 17.0156 45.3385 17.1302 45.3594 17.1406C45.3906 17.1406 45.4844 17.0469 45.6406 16.8594C45.9531 16.099 48.2083 14.2448 52.4062 11.2969C56.7604 8.55729 59.4115 7.79167 60.3594 9C61.3177 10.2083 61.2604 12.5938 60.1875 16.1562C59.125 19.7083 57.7292 23.6302 56 27.9219C54.5 31.6719 53.2448 35.125 52.2344 38.2812C51.224 41.4375 50.9271 43.7396 51.3438 45.1875C51.625 45.8542 52.1562 45.9792 52.9375 45.5625C53.7188 45.1354 54.6354 44.4844 55.6875 43.6094C56.4896 42.9531 57.3073 42.3385 58.1406 41.7656C58.9844 41.1823 59.7917 40.7917 60.5625 40.5938C62.4167 40.2396 63.4323 40.8021 63.6094 42.2812C63.7969 43.7604 63.5781 45.5208 62.9531 47.5625C62.3385 49.6042 61.75 51.3073 61.1875 52.6719C60.9688 53.2344 60.8177 53.6458 60.7344 53.9062ZM42.6875 21.7031C42.6146 21.4219 41.2292 22.8333 38.5312 25.9375C35.8438 29.0417 32.7292 33.0052 29.1875 37.8281C25.6458 42.6406 22.5677 47.4688 19.9531 52.3125C17.349 57.1667 16.0885 61.1927 16.1719 64.3906C16.7135 68.6927 18.7031 69.3802 22.1406 66.4531C25.5885 63.5365 29.3125 58.0781 33.3125 50.0781C37.3229 42.0781 40.4479 32.6198 42.6875 21.7031ZM87.4164 42.1172C87.5336 42 87.6638 41.9609 87.807 42C87.9503 42.0391 88.0544 42.1237 88.1195 42.2539C88.1977 42.3711 88.1977 42.5078 88.1195 42.6641C86.9477 44.487 85.6195 46.2122 84.1352 47.8398C83.9919 48.0091 83.8422 48.1849 83.6859 48.3672C77.8005 54.8385 73.6794 57.4688 71.3227 56.2578C68.9659 55.0469 68.5036 52.013 69.9359 47.1562C71.3943 43.0417 73.074 40.4115 74.975 39.2656C76.876 38.1198 78.419 37.9049 79.6039 38.6211C80.8018 39.3242 81.0622 40.3919 80.3852 41.8242C79.5909 43.1654 78.4841 44.3177 77.0648 45.2812C75.6456 46.2448 74.2654 46.8242 72.9242 47.0195C71.9477 48.7122 71.3552 50.4049 71.1469 52.0977C70.9385 53.7904 71.5896 54.7344 73.1 54.9297C74.5974 54.8906 76.2771 54.0638 78.1391 52.4492C80.0141 50.8477 81.7589 49.0833 83.3734 47.1562C84.988 45.2292 86.1599 43.7708 86.8891 42.7812C87.1755 42.4036 87.3513 42.1823 87.4164 42.1172ZM77.0258 41.9609C76.8305 42.1172 76.557 42.3581 76.2055 42.6836C75.8669 42.9961 75.5284 43.3281 75.1898 43.6797C74.8643 44.0312 74.6169 44.3307 74.4477 44.5781C74.2914 44.8255 74.3044 44.9492 74.4867 44.9492C74.682 44.9362 75.1247 44.7344 75.8148 44.3438C76.4398 43.9661 77.0128 43.5169 77.5336 42.9961C78.0544 42.4753 78.432 42.0195 78.6664 41.6289C78.9138 41.2253 78.9203 41.0234 78.6859 41.0234C78.4646 41.0104 77.9112 41.3229 77.0258 41.9609ZM107.483 42.4883C107.691 42.3971 107.873 42.4167 108.03 42.5469C108.199 42.6641 108.29 42.8138 108.303 42.9961C108.329 43.1784 108.238 43.3216 108.03 43.4258C102.626 45.7044 97.6846 48.7122 93.2055 52.4492C92.8539 55.7174 91.8383 58.4714 90.1586 60.7109C88.4789 62.9505 86.7471 64.5456 84.9633 65.4961C83.1924 66.4596 81.988 66.6549 81.35 66.082C80.699 65.5221 81.2328 64.0638 82.9516 61.707C85.8552 58.1133 88.0362 55.7174 89.4945 54.5195C90.6924 53.5039 91.3826 52.6641 91.5648 52C91.7471 51.3229 91.3956 50.2552 90.5102 48.7969C89.182 46.6615 88.3943 44.6107 88.1469 42.6445C87.8995 40.6784 88.9542 38.9596 91.3109 37.4883C92.626 36.7591 93.7263 36.4857 94.6117 36.668C95.4971 36.8503 96.1026 37.2214 96.4281 37.7812C96.7667 38.3411 96.7602 38.8229 96.4086 39.2266C95.8878 39.6823 95.2823 40.0208 94.5922 40.2422C93.9802 40.4505 93.3878 40.7565 92.8148 41.1602C92.2549 41.5508 91.8057 42.2344 91.4672 43.2109C91.2198 44.3307 91.4346 45.5742 92.1117 46.9414C92.6716 48.1393 93.0427 49.5391 93.225 51.1406C93.225 51.3229 93.531 51.1341 94.143 50.5742C95.406 48.9987 99.8526 46.3034 107.483 42.4883ZM90.5297 56.8047C90.9984 55.8151 91.3109 54.8581 91.4672 53.9336C87.4828 57.5534 84.8917 60.2878 83.6937 62.1367C82.4958 63.9857 82.2159 64.9948 82.8539 65.1641C83.4789 65.3333 84.5466 64.7083 86.057 63.2891C87.5805 61.8698 89.0714 59.7083 90.5297 56.8047ZM127.334 42.4883C127.543 42.3971 127.725 42.4167 127.881 42.5469C128.051 42.6641 128.142 42.8138 128.155 42.9961C128.181 43.1784 128.09 43.3216 127.881 43.4258C122.478 45.7044 117.536 48.7122 113.057 52.4492C112.705 55.7174 111.69 58.4714 110.01 60.7109C108.33 62.9505 106.599 64.5456 104.815 65.4961C103.044 66.4596 101.84 66.6549 101.202 66.082C100.551 65.5221 101.084 64.0638 102.803 61.707C105.707 58.1133 107.888 55.7174 109.346 54.5195C110.544 53.5039 111.234 52.6641 111.416 52C111.599 51.3229 111.247 50.2552 110.362 48.7969C109.034 46.6615 108.246 44.6107 107.998 42.6445C107.751 40.6784 108.806 38.9596 111.162 37.4883C112.478 36.7591 113.578 36.4857 114.463 36.668C115.349 36.8503 115.954 37.2214 116.28 37.7812C116.618 38.3411 116.612 38.8229 116.26 39.2266C115.739 39.6823 115.134 40.0208 114.444 40.2422C113.832 40.4505 113.239 40.7565 112.666 41.1602C112.107 41.5508 111.657 42.2344 111.319 43.2109C111.071 44.3307 111.286 45.5742 111.963 46.9414C112.523 48.1393 112.894 49.5391 113.077 51.1406C113.077 51.3229 113.383 51.1341 113.995 50.5742C115.258 48.9987 119.704 46.3034 127.334 42.4883ZM110.381 56.8047C110.85 55.8151 111.162 54.8581 111.319 53.9336C107.334 57.5534 104.743 60.2878 103.545 62.1367C102.347 63.9857 102.067 64.9948 102.705 65.1641C103.33 65.3333 104.398 64.7083 105.909 63.2891C107.432 61.8698 108.923 59.7083 110.381 56.8047ZM150.78 43.2891C150.936 43.1198 151.092 43.0677 151.248 43.1328C151.418 43.1979 151.535 43.3216 151.6 43.5039C151.678 43.6732 151.652 43.849 151.522 44.0312C145.767 50.7891 141.444 53.9792 138.553 53.6016C135.676 53.224 134.699 50.9648 135.623 46.8242C135.415 46.9544 135.181 47.1042 134.92 47.2734C133.449 48.237 131.47 49.4219 128.983 50.8281C126.066 52.3125 124.51 52.3581 124.315 50.9648C124.12 49.5586 124.862 47.651 126.541 45.2422C128.234 42.8203 130.448 40.8216 133.182 39.2461C134.927 38.3607 136.444 38.0612 137.733 38.3477C139.022 38.6211 139.959 39.194 140.545 40.0664C141.144 40.9258 141.274 41.8112 140.936 42.7227C140.545 43.6081 140.103 43.9727 139.608 43.8164C139.126 43.6602 138.618 43.3216 138.084 42.8008C137.798 42.5534 137.511 42.332 137.225 42.1367C136.952 41.9284 136.678 41.8047 136.405 41.7656C135.09 41.6745 133.644 42.1497 132.069 43.1914C130.493 44.2331 129.1 45.4245 127.889 46.7656C126.678 48.0938 125.962 49.1549 125.741 49.9492C125.532 50.7305 126.131 50.8216 127.537 50.2227C130.676 48.8555 133.573 47.1042 136.229 44.9688C136.75 44.5651 137.082 44.5781 137.225 45.0078C137.368 45.4245 137.414 46.0299 137.362 46.8242C137.31 47.6055 137.238 48.3477 137.147 49.0508C137.056 49.6888 137.017 50.1055 137.03 50.3008C137.264 51.5117 137.922 52.1562 139.002 52.2344C140.083 52.3125 141.073 52.1042 141.971 51.6094C145.409 49.3958 148.345 46.6224 150.78 43.2891ZM178.639 43.0742C178.847 42.9701 179.03 42.9766 179.186 43.0938C179.342 43.2109 179.427 43.3672 179.44 43.5625C179.466 43.7448 179.381 43.8945 179.186 44.0117C172.663 46.9154 168.248 49.526 165.944 51.8438C163.652 54.1615 161.699 57.0521 160.084 60.5156C158.327 64.5391 154.394 70.6914 148.288 78.9727C138.288 90.418 132.968 93.5234 132.33 88.2891C131.679 83.0677 139.928 72.8203 157.077 57.5469C157.194 57.4557 157.298 57.3776 157.389 57.3125C157.532 57.2083 157.663 57.0911 157.78 56.9609C157.91 56.8307 158.066 56.6029 158.248 56.2773C158.444 55.9518 158.711 55.444 159.049 54.7539C159.401 54.0768 159.87 53.1393 160.455 51.9414C162.278 48.2044 163.528 45.6654 164.205 44.3242C164.557 43.6471 164.798 43.1719 164.928 42.8984C165.058 42.612 165.104 42.4818 165.065 42.5078C165.026 42.5339 164.922 42.651 164.752 42.8594C164.479 43.1979 164.114 43.5951 163.659 44.0508C163.216 44.5065 162.734 44.8516 162.213 45.0859C161.705 45.3073 161.23 45.2487 160.788 44.9102C159.056 46.082 157.363 47.2995 155.709 48.5625C152.363 51.0365 150.091 52.3255 148.893 52.4297C147.708 52.5469 147.304 51.9414 147.682 50.6133C148.06 49.2721 148.932 47.6706 150.299 45.8086C151.666 43.9336 153.242 42.2539 155.026 40.7695C156.81 39.2852 158.509 38.4518 160.123 38.2695C161.738 38.0742 162.982 38.9857 163.854 41.0039C164.036 40.8346 164.225 40.6523 164.42 40.457C164.876 39.9492 165.325 39.5586 165.768 39.2852C166.224 39.0117 166.666 39.0898 167.096 39.5195C167.982 40.3919 168.203 41.7005 167.76 43.4453C167.33 45.1901 166.217 48.0221 164.42 51.9414C167.884 49.5456 171.035 47.5469 173.873 45.9453C175.332 45.099 176.92 44.1419 178.639 43.0742ZM153.151 49.1094C153.515 48.875 153.919 48.6081 154.362 48.3086C155.39 47.6315 156.439 46.9023 157.506 46.1211C158.587 45.3398 159.42 44.6042 160.006 43.9141C160.592 43.224 160.664 42.6771 160.221 42.2734C159.7 41.9479 158.795 42.1888 157.506 42.9961C156.23 43.8034 154.896 44.832 153.502 46.082C152.122 47.319 151.002 48.4518 150.143 49.4805C149.297 50.4961 149.043 51.056 149.381 51.1602C149.72 51.2643 150.976 50.5807 153.151 49.1094ZM154.518 63.0742C155.091 62.0716 155.651 61.069 156.198 60.0664C156.315 59.8581 156.432 59.6497 156.549 59.4414C146.185 68.8555 139.505 76.388 136.51 82.0391C133.515 87.6901 133.659 89.4414 136.94 87.293C140.208 85.1445 146.067 77.0716 154.518 63.0742ZM196.205 42.1172C196.323 42 196.453 41.9609 196.596 42C196.739 42.0391 196.843 42.1237 196.909 42.2539C196.987 42.3711 196.987 42.5078 196.909 42.6641C195.737 44.487 194.409 46.2122 192.924 47.8398C192.781 48.0091 192.631 48.1849 192.475 48.3672C186.59 54.8385 182.468 57.4688 180.112 56.2578C177.755 55.0469 177.293 52.013 178.725 47.1562C180.183 43.0417 181.863 40.4115 183.764 39.2656C185.665 38.1198 187.208 37.9049 188.393 38.6211C189.591 39.3242 189.851 40.3919 189.174 41.8242C188.38 43.1654 187.273 44.3177 185.854 45.2812C184.435 46.2448 183.054 46.8242 181.713 47.0195C180.737 48.7122 180.144 50.4049 179.936 52.0977C179.728 53.7904 180.379 54.7344 181.889 54.9297C183.386 54.8906 185.066 54.0638 186.928 52.4492C188.803 50.8477 190.548 49.0833 192.163 47.1562C193.777 45.2292 194.949 43.7708 195.678 42.7812C195.965 42.4036 196.14 42.1823 196.205 42.1172ZM185.815 41.9609C185.62 42.1172 185.346 42.3581 184.995 42.6836C184.656 42.9961 184.317 43.3281 183.979 43.6797C183.653 44.0312 183.406 44.3307 183.237 44.5781C183.08 44.8255 183.093 44.9492 183.276 44.9492C183.471 44.9362 183.914 44.7344 184.604 44.3438C185.229 43.9661 185.802 43.5169 186.323 42.9961C186.843 42.4753 187.221 42.0195 187.455 41.6289C187.703 41.2253 187.709 41.0234 187.475 41.0234C187.254 41.0104 186.7 41.3229 185.815 41.9609Z" fill="#D92B44"></path>
</svg>