<svg width="731" height="346" viewBox="0 0 731 346" fill="none" xmlns="http://www.w3.org/2000/svg" preserveAspectRatio="none" style="width: 45.6875rem;">
<path d="M288.008 62.7587C288.632 63.1928 288.905 63.6947 288.827 64.2641C288.749 64.8336 288.46 65.2698 287.959 65.5726C287.453 65.8436 286.881 65.8122 286.246 65.4782C282.074 63.8223 273.306 63.8225 259.942 65.4788C246.571 67.1032 233.344 69.1663 220.259 71.668C207.201 74.1333 199.046 75.7674 195.796 76.5703C196.096 77.5113 196.333 78.2318 196.506 78.7318C196.685 79.2637 196.802 79.657 196.856 79.9117C196.943 80.1617 196.935 80.3598 196.834 80.5059C196.732 80.6521 196.54 80.8442 196.259 81.0823C195.708 81.4582 194.672 82.6764 193.151 84.7369C191.656 86.7609 189.597 90.5085 186.976 95.9798C184.348 101.419 181.082 109.479 177.178 120.161C173.307 130.837 168.685 145.005 163.311 162.664C159.227 176.555 155.36 194.273 151.71 215.816C148.053 237.328 145.589 257.5 144.318 276.332C143.078 295.16 143.988 307.469 147.048 313.259C150.146 319.077 156.367 313.195 165.709 295.613C168.13 290.762 171.351 283.349 175.372 273.372C180.065 261.722 185.35 249.493 191.225 236.686C197.107 223.91 202.812 213.113 208.341 204.296C213.896 195.442 216.971 192.957 217.565 196.843C217.77 195.467 214.873 200.42 208.872 211.703C202.872 222.986 196.404 235.897 189.469 250.435C182.573 265 176.666 277.894 171.749 289.118C167.878 297.923 165.335 303.448 164.119 305.694C154.399 321.657 147.962 323.089 144.808 309.992C141.693 296.921 141.504 275.364 144.242 245.32C147.011 215.272 152.381 182.775 160.352 147.83C169.142 113.456 175.376 92.8972 179.056 86.1553C180.466 82.7978 181.082 80.8531 180.902 80.3212C180.755 79.7847 179.625 80.0153 177.513 81.0132C175.721 81.8002 173.139 82.7024 169.769 83.7199C150.102 89.1527 123.663 97.9547 90.4515 110.126C57.2656 122.26 32.2543 135.039 15.4174 148.463C14.6239 149.104 13.7449 149.265 12.7804 148.946C11.848 148.623 11.1903 148.03 10.8072 147.166C10.4174 146.271 10.6625 145.316 11.5424 144.302C10.5949 143.127 15.7292 139.866 26.9456 134.518C38.1619 129.17 52.7333 122.889 70.6596 115.675C88.586 108.461 107.179 101.495 126.44 94.7751C145.694 88.0238 162.884 82.6572 178.011 78.6752C179.62 78.2761 180.875 77.9288 181.775 77.6332C182.7 77.301 183.388 77.0201 183.837 76.7903C184.312 76.524 184.629 76.2971 184.788 76.1097C184.973 75.8858 185.106 75.6529 185.188 75.4113C185.255 75.1059 185.481 74.7611 185.864 74.3768C186.273 73.9561 187.077 73.4446 188.277 72.8426C189.24 72.3737 190.33 72.2638 191.545 72.5131C192.754 72.7305 193.766 73.2721 194.581 74.1379C200.635 72.4659 210.342 70.326 223.703 67.7182C237.063 65.1104 250.092 63.1256 262.788 61.7639C275.516 60.3975 283.923 60.7291 288.008 62.7587ZM276.776 187.752C276.934 187.401 277.181 187.233 277.516 187.25C277.845 187.235 278.133 187.34 278.381 187.567C278.628 187.793 278.693 188.096 278.574 188.474C277.338 192.496 275.347 196.25 272.602 199.737C269.89 203.219 266.036 204.619 261.042 203.936C257.219 202.985 254.142 201.169 251.812 198.489C249.506 195.772 247.693 193.181 246.371 190.715C245.338 188.831 244.458 187.58 243.729 186.965C243.032 186.344 242.36 186.853 241.712 188.49C241.09 190.091 240.381 193.313 239.586 198.157C238.859 203.483 238.225 210.798 237.681 220.102C237.269 227.68 236.748 234.437 236.118 240.372C235.528 246.334 234.689 249.494 233.602 249.849C227.861 249.243 223.824 241.593 221.493 226.898C219.194 212.198 218.681 194.891 219.954 174.975C221.227 155.059 224.371 136.987 229.385 120.76C234.425 104.496 241.381 94.5015 250.253 90.7765C252.092 90.2124 253.694 90.4052 255.059 91.3549C256.416 92.2728 257.15 93.6922 257.26 95.613C257.308 98.3308 257.29 100.434 257.209 101.924C257.153 103.376 257.009 104.415 256.776 105.04C256.57 105.628 256.276 105.966 255.896 106.055C255.542 106.106 255.1 106.056 254.569 105.904C253.896 105.707 253.089 105.66 252.148 105.765C251.233 105.833 250.155 106.384 248.914 107.419C247.705 108.449 246.336 110.29 244.809 112.943C243.307 115.559 241.632 119.316 239.786 124.214C228.221 158.502 223.085 187.107 224.378 210.03C225.696 232.915 228.392 245.341 232.464 247.307C233.627 241.852 234.681 232.998 235.627 220.747C236.309 212.407 237.101 204.347 238.001 196.566C238.935 188.781 240.123 182.895 241.566 178.909C243.041 174.919 244.917 174.448 247.193 177.497C248.654 179.68 250.184 182.263 251.782 185.247C254.111 189.634 256.587 193.54 259.209 196.965C261.825 200.359 264.6 201.693 267.534 200.969C270.462 200.213 273.543 195.808 276.776 187.752ZM319.893 177.713C320.122 177.384 320.424 177.241 320.799 177.285C321.173 177.329 321.475 177.498 321.704 177.793C321.958 178.051 322.029 178.386 321.918 178.796C319.968 183.677 317.58 188.375 314.755 192.891C314.489 193.357 314.21 193.841 313.919 194.343C302.728 212.293 293.903 220.213 287.442 218.104C280.982 215.994 278.259 208.743 279.274 196.349C280.74 185.762 283.526 178.723 287.632 175.235C291.738 171.746 295.443 170.663 298.747 171.986C302.077 173.273 303.277 175.79 302.347 179.536C301.081 183.103 298.943 186.32 295.933 189.189C292.924 192.058 289.811 193.973 286.595 194.935C285.061 199.427 284.476 203.78 284.842 207.995C285.208 212.209 287.31 214.282 291.148 214.214C294.832 213.577 298.556 210.949 302.322 206.328C306.127 201.735 309.524 196.79 312.515 191.495C315.506 186.199 317.646 182.21 318.935 179.527C319.447 178.5 319.766 177.895 319.893 177.713ZM294.108 181.084C293.706 181.537 293.155 182.225 292.455 183.148C291.78 184.034 291.116 184.968 290.461 185.95C289.839 186.928 289.383 187.749 289.093 188.415C288.835 189.077 288.932 189.375 289.383 189.309C289.859 189.206 290.849 188.553 292.353 187.348C293.703 186.199 294.886 184.894 295.903 183.432C296.921 181.97 297.617 180.72 297.994 179.68C298.396 178.603 298.307 178.108 297.727 178.192C297.173 178.24 295.966 179.204 294.108 181.084ZM436.675 162.824C437.013 162.381 437.424 162.206 437.908 162.299C438.426 162.388 438.815 162.659 439.078 163.113C439.366 163.531 439.365 163.991 439.073 164.493C430.891 176.291 422.455 184.795 413.766 190.003C405.11 195.207 398.151 198.636 392.891 200.291C389.336 201.532 387.42 202.518 387.144 203.247C386.411 209.165 387.516 215.372 390.46 221.869C392.32 226.391 393.976 231.91 395.43 238.428C396.923 244.972 397.414 253.206 396.903 263.129C394.326 284.877 389.918 290.15 383.681 278.947C377.443 267.744 376.086 243.584 379.609 206.465C379.366 206.107 379.124 205.748 378.881 205.39C378.109 204.255 377.569 203.201 377.262 202.228C376.93 201.292 377.365 200.687 378.569 200.413C379.658 200.221 380.417 199.42 380.848 198.012C381.246 196.607 381.62 194.386 381.97 191.348C382.147 184.067 385.634 169.014 392.433 146.191C397.69 130.322 402.437 118.532 406.674 110.823C410.904 103.081 414.503 98.2222 417.47 96.246C420.469 94.265 422.711 93.954 424.196 95.3129C425.713 96.6671 426.37 98.5079 426.168 100.835C425.999 103.158 424.86 104.753 422.753 105.618C421.071 106.455 418.044 111.657 413.671 121.225C409.298 130.793 404.705 142.527 399.893 156.427C395.08 170.327 391.194 184.206 388.232 198.066C408.707 192.055 424.854 180.308 436.675 162.824ZM394.043 252.27C393.258 239.845 390.193 227.867 384.849 216.336C380.752 249.665 381.312 270.084 386.532 277.595C391.751 285.105 394.254 276.664 394.043 252.27ZM500.375 151.65C500.58 151.522 500.776 151.509 500.965 151.613C501.146 151.685 501.276 151.83 501.356 152.048C501.429 152.235 501.37 152.424 501.178 152.616C495.954 158.5 490.978 165.234 486.249 172.819C483.214 177.596 480.395 181.668 477.791 185.036C475.219 188.399 472.954 190.239 470.996 190.558C469.07 190.872 467.539 188.831 466.404 184.433C465.106 178.648 464.498 173.845 464.582 170.025C464.697 166.2 464.921 163.508 465.254 161.95C465.412 160.975 465.429 160.512 465.307 160.563C465.211 160.577 464.797 161.13 464.066 162.222C463.298 163.45 461.966 165.384 460.071 168.025C453.613 176.847 448.682 181.769 445.28 182.791C441.91 183.809 439.756 182.35 438.819 178.416C437.914 174.478 437.947 169.483 438.917 163.432C440.097 156.497 441.753 151.873 443.884 149.559C446.009 147.213 448.032 146.343 449.955 146.949C451.877 147.555 453.141 148.814 453.748 150.728C454.348 152.61 453.746 154.307 451.942 155.818C449.145 160.461 446.918 165.054 445.261 169.597C443.636 174.135 443.056 177.338 443.521 179.207C443.978 181.044 446.002 180.256 449.593 176.843C453.177 173.398 458.795 166.012 466.447 154.684C468.104 148.894 469.965 145.389 472.03 144.168C474.088 142.916 475.703 143.09 476.874 144.692C478.077 146.289 478.206 148.453 477.26 151.185C474.738 157.594 472.805 163.801 471.46 169.808C470.109 175.784 469.515 180.483 469.679 183.906C469.875 187.324 471.051 188.4 473.206 187.133C477.012 183.951 481.207 178.463 485.792 170.67C488.177 166.743 490.594 163.042 493.043 159.566C495.523 156.085 497.967 153.446 500.375 151.65ZM619.639 51.406C620.343 51.4345 620.804 51.7283 621.023 52.2873C621.241 52.8463 621.211 53.4087 620.933 53.9746C620.681 54.5039 620.17 54.759 619.402 54.7398C593.668 54.2961 565.882 57.8617 536.043 65.4366C523.582 89.7439 514.422 114.423 508.563 139.473C502.697 164.492 499.789 184.843 499.84 200.528C499.898 216.244 502.537 222.244 507.757 218.527C512.28 213.566 517.78 204.063 524.255 190.019C529.118 179.788 534.175 170.235 539.426 161.36C544.677 152.484 549.809 147.106 554.823 145.225C555.679 145.034 556.319 145.236 556.745 145.83C557.164 146.393 557.303 147.046 557.162 147.788C557.021 148.531 556.533 149.046 555.697 149.332C550.619 151.223 545.384 156.583 539.991 165.414C534.59 174.213 529.41 183.652 524.448 193.733C520.762 201.067 517.385 207.354 514.316 212.595C511.254 217.868 508.666 220.922 506.551 221.756C500.589 222.922 497.376 216.021 496.913 201.054C496.418 186.09 498.583 166.619 503.408 142.639C508.226 118.627 515.616 93.665 525.576 67.7531C509.942 71.3823 492.723 75.8339 473.919 81.108C455.108 86.3502 438.184 91.645 423.148 96.9924C423.74 97.4312 423.197 98.3148 421.521 99.643C419.805 100.944 417.337 102.142 414.115 103.236C410.855 104.303 407.208 104.721 403.173 104.489C402.521 104.388 402.021 104.067 401.673 103.526C401.326 102.986 401.191 102.431 401.269 101.862C401.34 101.261 401.7 100.847 402.35 100.621C410.267 98.1842 418.164 95.6522 426.04 93.0246C433.884 90.4017 441.781 87.8697 449.73 85.4284C472.068 78.6535 488.761 73.9176 499.811 71.2204C510.887 68.4868 518.231 66.7905 521.843 66.1316C523.698 65.7951 525.018 65.5203 525.803 65.3071C526.62 65.0893 527.114 64.8366 527.285 64.5489C527.489 64.2566 527.565 63.8351 527.514 63.2844C527.455 62.538 527.642 61.3124 528.077 59.6076C528.543 57.8981 529.779 55.436 531.785 52.2213C533.823 49.0019 537.157 44.7726 541.787 39.5332C544.476 36.8753 546.697 36.6987 548.45 39.0034C550.196 41.2762 550.896 44.4895 550.552 48.6434C550.233 52.7607 548.336 56.2549 544.862 59.1259C544.189 59.5524 543.712 59.5729 543.431 59.1872C543.149 58.8015 542.976 58.2196 542.91 57.4414C542.843 56.6631 542.813 55.8961 542.818 55.1403C542.808 54.7807 542.805 54.4529 542.808 54.1569C539.4 59.0536 537.89 61.8676 538.278 62.5988C538.66 63.2981 541.223 62.8581 545.968 61.2788C556.386 56.0805 580.943 52.7896 619.639 51.406ZM619.463 134.258C619.668 134.13 619.865 134.117 620.053 134.221C620.234 134.293 620.365 134.438 620.444 134.656C620.517 134.843 620.458 135.032 620.266 135.224C615.043 141.108 610.066 147.842 605.338 155.427C602.303 160.204 599.483 164.276 596.879 167.644C594.307 171.007 592.042 172.847 590.084 173.166C588.158 173.48 586.627 171.439 585.492 167.041C584.194 161.256 583.587 156.453 583.67 152.633C583.786 148.808 584.01 146.116 584.342 144.558C584.5 143.583 584.518 143.12 584.396 143.171C584.299 143.185 583.885 143.738 583.154 144.83C582.386 146.058 581.055 147.992 579.159 150.633C572.701 159.455 567.771 164.377 564.368 165.399C560.998 166.416 558.844 164.958 557.907 161.024C557.002 157.086 557.035 152.091 558.005 146.04C559.186 139.105 560.842 134.481 562.973 132.167C565.097 129.821 567.12 128.951 569.043 129.557C570.965 130.163 572.23 131.422 572.836 133.336C573.436 135.218 572.834 136.915 571.031 138.426C568.233 143.069 566.006 147.662 564.349 152.205C562.725 156.743 562.145 159.946 562.609 161.815C563.066 163.652 565.091 162.864 568.682 159.451C572.266 156.006 577.884 148.62 585.535 137.292C587.192 131.502 589.053 127.997 591.118 126.776C593.176 125.524 594.791 125.698 595.962 127.3C597.166 128.897 597.294 131.061 596.348 133.793C593.827 140.202 591.893 146.409 590.549 152.416C589.197 158.392 588.603 163.091 588.767 166.514C588.964 169.932 590.139 171.008 592.294 169.741C596.1 166.559 600.295 161.071 604.88 153.278C607.266 149.351 609.683 145.65 612.131 142.174C614.611 138.693 617.055 136.054 619.463 134.258ZM653.907 118.345C654.566 120.35 653.904 121.842 651.92 122.821C649.937 123.8 647.741 123.94 645.334 123.241C644.907 123.106 644.541 122.946 644.236 122.761C643.924 122.544 643.632 122.423 643.361 122.397C643.09 122.371 642.779 122.547 642.428 122.927C642.109 123.302 641.655 123.975 641.065 124.948C640.507 125.916 639.756 127.306 638.814 129.118C637.896 130.893 636.707 133.184 635.245 135.991C633.341 139.683 630.845 144.496 627.758 150.429C623.826 157.701 620.704 160.586 618.392 159.085C616.086 157.616 616.33 149.948 619.123 136.08C620.879 128.569 622.827 123.524 624.968 120.946C627.135 118.332 629.035 117.349 630.667 117.997C632.325 118.608 633.269 119.997 633.497 122.163C633.751 124.292 632.847 126.361 630.783 128.37C630.092 128.865 629.392 128.934 628.685 128.578C627.125 131.859 625.635 135.31 624.214 138.932C622.819 142.517 621.716 145.764 620.907 148.672C620.092 151.549 619.741 153.57 619.857 154.735C619.972 155.9 620.737 155.673 622.153 154.055C623.102 152.898 624.655 150.439 626.81 146.678C628.965 142.916 631.141 139.02 633.338 134.989C635.568 130.954 637.205 127.957 638.249 125.999C638.439 125.643 638.578 125.36 638.667 125.15C639.623 123.402 640.339 122.165 640.816 121.439C641.324 120.708 641.765 120.282 642.138 120.162C642.504 120.01 642.965 119.992 643.521 120.108C644.188 120.273 645.22 120.287 646.619 120.148C647.353 120.008 648.233 119.617 649.258 118.975C650.259 118.369 651.18 117.939 652.023 117.685C652.891 117.394 653.519 117.614 653.907 118.345ZM702.108 121.893C702.337 121.564 702.639 121.421 703.014 121.465C703.388 121.509 703.69 121.678 703.919 121.973C704.173 122.231 704.244 122.566 704.133 122.976C702.183 127.857 699.795 132.555 696.97 137.071C696.704 137.537 696.425 138.021 696.134 138.523C684.943 156.473 676.118 164.393 669.657 162.284C663.197 160.174 660.474 152.923 661.489 140.53C662.955 129.942 665.741 122.903 669.847 119.415C673.953 115.926 677.658 114.843 680.962 116.167C684.292 117.453 685.492 119.97 684.562 123.717C683.296 127.283 681.158 130.5 678.148 133.369C675.139 136.238 672.026 138.154 668.81 139.116C667.276 143.607 666.691 147.96 667.057 152.175C667.423 156.389 669.525 158.462 673.363 158.394C677.047 157.758 680.771 155.129 684.537 150.508C688.342 145.915 691.739 140.97 694.73 135.675C697.721 130.379 699.861 126.39 701.15 123.707C701.662 122.68 701.981 122.075 702.108 121.893ZM676.323 125.265C675.921 125.717 675.37 126.405 674.67 127.328C673.995 128.214 673.331 129.149 672.676 130.131C672.054 131.108 671.598 131.929 671.308 132.595C671.05 133.257 671.147 133.555 671.598 133.489C672.074 133.386 673.064 132.733 674.568 131.528C675.918 130.379 677.101 129.074 678.118 127.612C679.136 126.151 679.832 124.9 680.209 123.86C680.611 122.784 680.522 122.288 679.942 122.372C679.388 122.421 678.181 123.385 676.323 125.265Z" fill="white" fill-opacity="0.4"></path>
</svg>