<svg width="158" height="54" viewBox="0 0 158 54" fill="none" xmlns="http://www.w3.org/2000/svg">
<g id="Group 11">
<path id="Vector" d="M157.332 20.012C157.089 19.2794 156.709 18.1081 156.568 17.6731L156.527 17.5434C156.386 17.1351 156.067 16.9443 155.676 16.9443H153.059C152.717 16.9443 152.611 17.1275 152.592 17.1504C152.497 17.2877 152.467 17.4442 152.528 17.6349C152.588 17.8372 153.12 19.4282 153.412 20.2409C153.507 20.508 153.75 20.8323 154.373 20.8323H156.705C157.077 20.8323 157.222 20.714 157.298 20.6072C157.392 20.4775 157.423 20.2829 157.328 20.0158" fill="black"/>
<path id="Vector_2" d="M151.38 17.5206C151.263 17.1581 150.947 16.9482 150.537 16.9482H147.921C147.624 16.9482 147.514 17.0703 147.457 17.1505C147.359 17.284 147.332 17.4595 147.393 17.6427C147.461 17.8563 147.989 19.4474 148.274 20.2448C148.373 20.5233 148.616 20.8362 149.235 20.8362H151.582C151.92 20.8324 152.087 20.7256 152.167 20.6149C152.273 20.4699 152.296 20.2868 152.208 20.0197C151.92 19.1536 151.43 17.677 151.38 17.5206Z" fill="black"/>
<path id="Vector_3" d="M51.2068 38.3458C51.2068 40.1047 49.794 41.5279 48.0432 41.5317C46.2924 41.5317 44.8721 40.1123 44.8721 38.3534C44.8721 36.5945 46.2848 35.1675 48.0356 35.1675C49.7864 35.1675 51.2068 36.5868 51.2106 38.3458" fill="#00AAEA"/>
<path id="Vector_4" d="M53.1012 15.735C53.6443 14.4454 53.0366 13.0337 51.7188 12.5491C50.4086 12.0684 49.1249 12.8009 48.4489 14.0066C47.3589 15.9563 41.704 26.7198 40.7584 28.5016C39.8089 30.2873 38.6164 32.836 37.6252 32.4469C36.7138 32.0882 35.639 28.1773 35.1795 27.0632C34.3667 25.0792 32.7147 22.7212 29.9575 23.3202C27.8497 23.7743 26.6496 25.4416 24.7431 29.1198C23.695 31.1381 23.0379 32.4697 22.0847 33.7785C20.1288 36.4646 19.0237 32.0539 18.3781 29.7722C17.5084 26.7122 15.9247 22.3816 12.4687 22.3854C10.5394 22.3854 8.48104 23.5224 5.91754 27.689C4.42501 30.1194 0.92725 36.9224 0.410751 38.1319C-0.139927 39.4216 0.334796 40.8218 1.61845 41.3713C2.9021 41.9245 4.16296 41.3484 4.91872 40.1694C7.37588 36.3348 8.04809 34.8392 9.30516 33.0764C10.6496 31.203 12.4801 29.5204 13.8777 34.0265C14.7588 36.8614 16.2969 41.5163 20.4403 41.543C22.9354 41.562 25.5141 39.3987 26.7256 37.3345C28.089 35.0032 28.4346 33.7556 29.4752 32.63C30.0069 32.0577 30.7968 31.8478 31.545 33.5152C32.2666 35.1253 33.7591 40.2152 36.4213 41.3255C40.1773 42.8898 43.7093 35.2627 44.9284 32.8284C45.912 30.8672 52.672 16.7576 53.105 15.7274" fill="#00AAEA"/>
<path id="Vector_5" d="M83.6245 17.9059C83.4346 17.7151 83.1536 17.6235 82.8004 17.6235H82.8194C81.7066 17.6235 59.9871 17.6541 59.9871 17.6541C59.7858 17.6541 59.5693 17.7227 59.3908 17.925C59.2731 18.0432 59.1934 18.2722 59.1934 18.4744V21.378C59.1934 21.79 59.5466 22.1525 59.9871 22.1525H60.1162C60.1162 22.1525 76.0365 22.1296 76.7581 22.1296H77.4341C77.9202 22.1296 78.0531 22.2174 78.1671 22.3662C78.4177 22.6981 78.1595 23.2247 78.1215 23.3506C77.0239 27.3454 74.6124 30.4321 71.1564 32.2826L70.9627 32.3856L70.8336 32.2063C69.9829 31.035 69.3448 30.2261 68.6081 29.2913L68.5017 29.1539C68.1751 28.7228 67.7612 28.5282 67.4763 28.5282H63.6216C63.4051 28.532 63.1962 28.6159 63.0899 28.8716C63.0253 29.0356 63.0101 29.2646 63.1506 29.4782C66.4661 33.805 68.722 37.3534 70.7424 41.0353C70.9057 41.3329 71.1981 41.5504 71.6045 41.5504H71.521H75.7821C75.9947 41.5504 76.1429 41.4398 76.2492 41.2452C76.31 41.1269 76.3821 40.9132 76.2492 40.6767C75.6302 39.4977 75.2048 38.7003 73.887 36.7505L73.7465 36.5407L73.9515 36.3957C78.8355 32.9465 83.4042 28.5511 83.8372 18.6041C83.8486 18.3485 83.8068 18.1081 83.6245 17.9059Z" fill="black"/>
<path id="Vector_6" d="M107.099 17.5742C106.901 17.3453 106.689 17.3148 106.48 17.3071C106.043 17.3109 103.962 17.3224 102.693 17.3262C102.283 17.3262 101.904 17.6582 101.79 17.9291C99.6248 22.9121 93.3357 26.678 84.692 28.1278C84.1337 28.2385 83.864 28.5666 83.8564 28.9443V31.9471C83.8564 32.2066 83.9742 32.3974 84.1147 32.5233C84.3654 32.7331 84.6122 32.7598 84.8135 32.7369C88.991 32.2257 92.2116 31.3939 94.7523 30.2187L95.1131 30.0508L95.1283 40.7075C95.1283 41.1348 95.4625 41.5049 95.9486 41.5049H99.2109C99.6362 41.5011 99.9628 41.1005 99.9628 40.7571L99.9439 27.7615L100.054 27.6852C103.32 25.4455 106.161 21.7827 107.239 18.2076C107.304 17.9367 107.205 17.7001 107.103 17.5742" fill="black"/>
<path id="Vector_7" d="M124.568 27.9598L124.579 27.7194L131.875 27.7004C132.05 27.7004 132.266 27.6317 132.433 27.46C132.559 27.3379 132.661 27.1013 132.661 26.922V24.0337C132.657 23.7895 132.57 23.6178 132.452 23.4881C132.274 23.2935 132.061 23.2286 131.86 23.2286H124.614L124.61 18.0815C124.61 17.7267 124.352 17.2803 123.782 17.2803H120.561C120.334 17.2841 120.136 17.3757 119.984 17.5359C119.866 17.6542 119.771 17.8602 119.771 18.0777L119.779 23.2401L108.834 23.2515C108.659 23.2515 108.435 23.2897 108.234 23.4957C108.112 23.6178 108.01 23.8238 108.01 24.0756V26.9792C108.014 27.3341 108.306 27.75 108.826 27.75H108.933L119.745 27.7309L119.726 28.0018C119.342 34.2935 116.338 36.0868 110.695 37.2467C110.201 37.365 109.924 37.6053 109.924 38.0365V41.024C109.931 41.2491 110.019 41.4361 110.178 41.562C110.33 41.6879 110.573 41.7795 110.775 41.7528C120.227 40.4402 124.082 36.4645 124.564 27.9598" fill="black"/>
<path id="Vector_8" d="M156.952 23.4154C156.827 23.2933 156.626 23.2018 156.436 23.2018H156.303L140.47 23.2246L140.462 18.0737C140.462 17.8105 140.356 17.6197 140.238 17.4976C140.071 17.3221 139.843 17.2534 139.627 17.2534H136.577C136.178 17.2572 135.791 17.5777 135.791 18.0585L135.818 35.3235C135.818 39.6198 137.504 41.4283 142.202 41.4283H142.578L156.85 41.4016C157.256 41.4016 157.586 40.9972 157.586 40.6271V37.693C157.583 37.2961 157.275 36.8879 156.793 36.8879L143.755 36.8993H143.736C142.551 36.8993 141.678 36.823 141.172 36.4071C140.538 35.873 140.477 35.1061 140.489 33.9042L140.481 27.6964L156.402 27.6735C156.876 27.6735 157.199 27.2958 157.199 26.8684V23.9877C157.195 23.694 157.062 23.5261 156.952 23.4154Z" fill="black"/>
</g>
</svg>
