<svg width="104" height="83" viewBox="0 0 104 83" fill="none" xmlns="http://www.w3.org/2000/svg" preserveAspectRatio="none">
<path id="navi-deco.svg" fill-rule="evenodd" clip-rule="evenodd" d="M66.6497 71.742C77.6597 69.218 88.6697 66.695 99.7297 64.283C100.54 49.417 101.35 34.552 102.1 20.02C94.5199 13.879 86.9397 7.73797 79.1697 1.88097C60.4311 1.62675 41.7144 3.2512 23.2998 6.72997C17.1314 13.5078 10.4117 19.7626 3.20972 25.43C2.80972 36.7353 2.39639 48.029 1.96973 59.311C10.312 66.2835 19.4526 72.2409 29.1997 77.058C39.1228 74.8809 49.2058 73.5098 59.3499 72.958C63.4099 75.744 67.4598 78.53 71.5398 81.287C70.0779 78.022 68.4455 74.8359 66.6497 71.742Z" fill="white" stroke="black" stroke-width="3" stroke-linejoin="round"/>
</svg>
