<svg width="42" height="27" viewBox="0 0 42 27" fill="none" xmlns="http://www.w3.org/2000/svg" preserveAspectRatio="none" style="width: 2.625rem;">
<path d="M1 0H40.15C40.67 0 41.15 0.43 41.15 0.95V25.91C41.15 26.43 40.68 26.86 40.15 26.86H1C0.43 26.86 0 26.43 0 25.91V0.95C0 0.43 0.43 0 1 0ZM25.96 16.28C25.53 15.95 25.44 15.33 25.77 14.9C26.1 14.47 26.72 14.38 27.15 14.71L39.16 23.92V2.75L21.18 14.23C20.85 14.42 20.42 14.47 20.04 14.23L1.95 2.66V24.01L14.24 14.71C14.67 14.38 15.24 14.47 15.57 14.9C15.9 15.33 15.81 15.94 15.38 16.28L3.99 24.91H37.25L25.96 16.27V16.28ZM4.46 1.95L20.55 12.29L36.78 1.95H4.46Z" fill="black"></path>
<defs>
<clipPath>
<rect width="41.14" height="26.86" fill="white" style="width: 2.57125rem;"></rect>
</clipPath>
</defs>
</svg>